<svg width="927" height="733" viewBox="0 0 927 733" fill="none" xmlns="http://www.w3.org/2000/svg">
<path d="M160.196 710.487C154.433 713.905 146.74 715.614 137.115 715.614H119C119 715.798 119.368 715.645 120.103 715.157C120.839 714.607 121.483 713.631 122.035 712.227C122.648 710.823 122.954 708.778 122.954 706.092V661.043C122.954 658.663 122.648 656.862 122.035 655.641C121.483 654.359 120.839 653.505 120.103 653.077C119.368 652.65 119 652.498 119 652.62H137.023C146.403 652.62 153.82 654.146 159.276 657.198C164.119 659.884 167.859 663.516 170.495 668.094C173.131 672.672 174.449 677.83 174.449 683.568C174.449 689.794 173.192 695.196 170.679 699.774C168.227 704.291 164.732 707.862 160.196 710.487ZM156.61 661.318C153.912 659.548 151.031 658.266 147.966 657.472C144.901 656.679 141.253 656.282 137.023 656.282H129.575V711.952H137.023C142.05 711.952 146.157 711.525 149.345 710.67C152.594 709.815 155.384 708.503 157.713 706.733C160.717 704.413 163.016 701.392 164.61 697.668C166.265 693.884 167.093 689.489 167.093 684.483C167.093 679.173 166.142 674.534 164.242 670.566C162.403 666.537 159.859 663.454 156.61 661.318Z" fill="#385182"/>
<path d="M217.405 691.167L211.52 705.726C210.6 707.984 210.14 709.846 210.14 711.311C210.14 713.325 211.06 714.76 212.899 715.614H199.75C200.363 715.614 201.251 715.004 202.416 713.783C203.581 712.562 204.93 710.151 206.462 706.55L230.463 649.69L254.279 706.824C255.628 710.121 256.915 712.379 258.141 713.6C259.428 714.821 260.44 715.492 261.175 715.614H245.911C247.444 714.882 248.21 713.753 248.21 712.227C248.21 710.945 247.719 709.113 246.739 706.733L240.302 691.167H217.405ZM238.83 687.413L228.807 662.966L218.968 687.413H238.83Z" fill="#385182"/>
<path d="M327.506 684.85C327.506 678.379 328.885 672.611 331.644 667.544C334.464 662.478 338.387 658.541 343.414 655.733C348.502 652.925 354.357 651.521 360.978 651.521C366.495 651.521 371.644 652.742 376.426 655.183C381.269 657.564 385.131 661.165 388.012 665.988C390.955 670.81 392.426 676.609 392.426 683.385C392.426 689.855 391.016 695.623 388.196 700.69C385.438 705.756 381.514 709.693 376.426 712.501C371.399 715.309 365.575 716.713 358.955 716.713C353.437 716.713 348.257 715.523 343.414 713.142C338.633 710.701 334.77 707.069 331.828 702.246C328.947 697.424 327.506 691.625 327.506 684.85ZM385.07 684.758C385.07 679.203 383.905 674.198 381.576 669.742C379.307 665.225 376.15 661.715 372.104 659.212C368.12 656.648 363.614 655.366 358.587 655.366C353.989 655.366 349.882 656.526 346.265 658.846C342.709 661.165 339.92 664.462 337.897 668.735C335.874 672.946 334.862 677.86 334.862 683.476C334.862 689.031 335.997 694.067 338.265 698.584C340.594 703.04 343.751 706.55 347.736 709.113C351.782 711.616 356.319 712.868 361.345 712.868C365.943 712.868 370.02 711.708 373.576 709.388C377.192 707.069 380.012 703.803 382.035 699.591C384.058 695.318 385.07 690.374 385.07 684.758Z" fill="#385182"/>
<path d="M441.563 683.934C444.383 683.934 446.835 683.293 448.92 682.011C451.004 680.668 452.567 678.959 453.609 676.884C454.713 674.747 455.265 672.519 455.265 670.2C455.265 667.819 454.744 665.591 453.701 663.516C452.721 661.379 451.188 659.639 449.104 658.296C447.019 656.954 444.475 656.282 441.471 656.282H433.655V707.191C433.655 709.632 433.962 711.494 434.575 712.776C435.188 713.997 435.862 714.821 436.598 715.248C437.333 715.614 437.701 715.736 437.701 715.614H423.08C423.08 715.736 423.448 715.584 424.184 715.157C424.919 714.729 425.563 713.905 426.115 712.684C426.728 711.464 427.034 709.632 427.034 707.191V661.41C427.034 658.907 426.728 657.015 426.115 655.733C425.563 654.39 424.919 653.505 424.184 653.077C423.448 652.589 423.08 652.436 423.08 652.62H441.287C446.069 652.62 449.993 653.413 453.058 655C456.184 656.526 458.422 658.541 459.77 661.043C461.18 663.485 461.885 666.171 461.885 669.101C461.885 671.542 461.303 673.954 460.138 676.334C458.974 678.654 457.288 680.699 455.081 682.469C452.935 684.178 450.422 685.368 447.54 686.04L446.069 686.315L462.253 706.824C464.399 709.205 466.177 711.036 467.587 712.318C468.997 713.6 470.008 714.455 470.621 714.882C471.296 715.309 471.694 715.553 471.817 715.614H461.058L436.046 683.934H441.563Z" fill="#385182"/>
<path d="M510.081 691.167L504.196 705.726C503.276 707.984 502.816 709.846 502.816 711.311C502.816 713.325 503.736 714.76 505.575 715.614H492.425C493.038 715.614 493.927 715.004 495.092 713.783C496.257 712.562 497.605 710.151 499.138 706.55L523.138 649.69L546.955 706.824C548.303 710.121 549.591 712.379 550.817 713.6C552.104 714.821 553.116 715.492 553.851 715.614H538.587C540.119 714.882 540.886 713.753 540.886 712.227C540.886 710.945 540.395 709.113 539.414 706.733L532.978 691.167H510.081ZM531.506 687.413L521.483 662.966L511.644 687.413H531.506Z" fill="#385182"/>
<path d="M615.137 726.419C615.137 728.006 614.494 729.379 613.206 730.539C611.98 731.76 610.233 732.37 607.965 732.37C606.555 732.37 605.206 732.035 603.919 731.363C602.693 730.753 601.742 729.807 601.068 728.525C602.968 729.196 604.593 729.532 605.942 729.532C607.229 729.532 608.21 729.166 608.884 728.433C609.62 727.762 609.988 726.938 609.988 725.961C609.988 725.045 609.651 724.221 608.976 723.489C608.302 722.817 607.321 722.482 606.034 722.482H605.206L607.781 716.622C602.447 716.194 597.513 714.638 592.976 711.952C588.501 709.266 584.915 705.543 582.217 700.781C579.581 695.959 578.263 690.374 578.263 684.025C578.263 677.799 579.612 672.214 582.309 667.27C585.068 662.325 588.961 658.449 593.988 655.641C599.076 652.833 604.992 651.429 611.735 651.429C618.907 651.429 625.283 652.986 630.862 656.099V666.262C628.961 662.905 626.202 660.25 622.586 658.296C618.969 656.282 615.107 655.275 610.999 655.275C605.788 655.275 601.252 656.496 597.39 658.937C593.589 661.379 590.677 664.736 588.654 669.009C586.631 673.282 585.62 678.043 585.62 683.293C585.62 689.214 586.754 694.372 589.022 698.767C591.352 703.162 594.478 706.55 598.401 708.93C602.325 711.25 606.708 712.41 611.551 712.41C619.337 712.41 625.773 710.151 630.862 705.634V710.029C628.593 711.86 625.651 713.417 622.034 714.699C618.478 715.981 614.831 716.652 611.091 716.713L609.252 720.742C611.152 720.986 612.593 721.627 613.574 722.665C614.616 723.763 615.137 725.015 615.137 726.419Z" fill="#385182"/>
<path d="M674.917 691.167L669.032 705.726C668.113 707.984 667.653 709.846 667.653 711.311C667.653 713.325 668.572 714.76 670.412 715.614H657.262C657.875 715.614 658.764 715.004 659.929 713.783C661.093 712.562 662.442 710.151 663.975 706.55L687.975 649.69L711.791 706.824C713.14 710.121 714.427 712.379 715.653 713.6C716.941 714.821 717.952 715.492 718.688 715.614H703.423C704.956 714.882 705.722 713.753 705.722 712.227C705.722 710.945 705.232 709.113 704.251 706.733L697.814 691.167H674.917ZM696.343 687.413L686.32 662.966L676.481 687.413H696.343ZM676.481 644.562C676.481 642.792 677.032 641.419 678.136 640.442C679.301 639.404 680.772 638.885 682.55 638.885C684.327 638.885 686.504 639.435 689.078 640.533C691.04 641.327 692.542 641.724 693.584 641.724C695.669 641.724 696.711 640.381 696.711 637.695C696.711 637.024 696.68 636.505 696.619 636.138C697.784 637.176 698.366 638.641 698.366 640.533C698.366 642.304 697.784 643.708 696.619 644.745C695.515 645.722 694.075 646.21 692.297 646.21C690.519 646.21 688.343 645.661 685.768 644.562C683.806 643.769 682.304 643.372 681.262 643.372C679.178 643.372 678.136 644.715 678.136 647.401C678.136 648.072 678.166 648.591 678.228 648.957C677.063 647.919 676.481 646.454 676.481 644.562Z" fill="#385182"/>
<path d="M743.1 684.85C743.1 678.379 744.479 672.611 747.238 667.544C750.058 662.478 753.981 658.541 759.008 655.733C764.096 652.925 769.951 651.521 776.572 651.521C782.089 651.521 787.238 652.742 792.02 655.183C796.863 657.564 800.725 661.165 803.606 665.988C806.549 670.81 808.02 676.609 808.02 683.385C808.02 689.855 806.61 695.623 803.79 700.69C801.032 705.756 797.108 709.693 792.02 712.501C786.993 715.309 781.169 716.713 774.549 716.713C769.031 716.713 763.851 715.523 759.008 713.142C754.226 710.701 750.364 707.069 747.422 702.246C744.541 697.424 743.1 691.625 743.1 684.85ZM800.664 684.758C800.664 679.203 799.499 674.198 797.169 669.742C794.901 665.225 791.744 661.715 787.698 659.212C783.713 656.648 779.208 655.366 774.181 655.366C769.583 655.366 765.476 656.526 761.859 658.846C758.303 661.165 755.514 664.462 753.491 668.735C751.468 672.946 750.456 677.86 750.456 683.476C750.456 689.031 751.59 694.067 753.859 698.584C756.188 703.04 759.345 706.55 763.33 709.113C767.376 711.616 771.912 712.868 776.939 712.868C781.537 712.868 785.614 711.708 789.169 709.388C792.786 707.069 795.606 703.803 797.629 699.591C799.652 695.318 800.664 690.374 800.664 684.758Z" fill="#385182"/>
<path d="M216.683 645.852C217.426 645.852 218.169 645.852 218.911 645.852V647.712C215.445 648.208 211.546 648.456 207.214 648.456C203.005 648.456 197.744 647.526 191.431 645.666C185.242 643.806 179.61 640.334 174.535 635.25C164.137 624.835 157.824 611.32 155.596 594.705L144.27 511.939L105.649 599.354C102.183 606.918 100.079 613.242 99.3363 618.325H97.4795L49.3896 513.613L41.2199 606.05C40.9724 608.158 41.5913 610.018 43.0767 611.63C44.6859 613.242 46.4188 614.048 48.2756 614.048H51.2464V615.721H15.2254V613.862H18.1962C21.5383 613.862 24.4472 612.87 26.9229 610.886C29.5224 608.778 31.1316 606.05 31.7505 602.702L43.448 501.152C32.5551 479.701 19.4959 468.976 4.27053 468.976C2.90891 468.976 1.4854 469.038 0 469.162V467.302C3.34216 466.434 6.06539 466 8.16971 466C10.274 466 12.564 466.124 15.0397 466.372C17.5154 466.496 20.4243 467.054 23.7664 468.046C27.1086 469.038 30.2651 470.526 33.2359 472.51C36.2067 474.37 38.8061 476.353 41.0342 478.461C43.2623 480.445 45.3667 482.677 47.3472 485.157C50.6894 489.621 53.3507 493.898 55.3312 497.99L100.079 595.077L150.026 482.925H151.697L168.965 593.031C171.564 610.39 177.134 623.533 185.675 632.461C194.34 641.388 204.676 645.852 216.683 645.852Z" fill="#385182"/>
<path d="M198.796 613.862C202.014 613.862 204.737 612.746 206.966 610.514C209.317 608.158 210.555 605.368 210.679 602.144V498.92C210.555 495.696 209.317 492.968 206.966 490.737C204.737 488.505 202.014 487.389 198.796 487.389H196.382V485.529H237.045V487.389H234.631C231.413 487.389 228.628 488.505 226.276 490.737C224.048 492.968 222.872 495.696 222.748 498.92V602.144C222.748 605.368 223.924 608.158 226.276 610.514C228.628 612.746 231.413 613.862 234.631 613.862H237.045V615.721H196.382V613.862H198.796Z" fill="#385182"/>
<path d="M261.534 613.862C264.752 613.862 267.475 612.746 269.704 610.514C272.055 608.158 273.293 605.368 273.417 602.144V499.106C273.293 495.882 272.055 493.154 269.704 490.923C267.475 488.567 264.752 487.389 261.534 487.389H259.12V485.529H299.783V487.389H297.369C292.913 487.389 289.509 489.311 287.157 493.154C286.043 495.014 285.486 496.998 285.486 499.106V609.956H312.038C321.197 609.956 328.191 607.91 333.019 603.818C337.846 599.726 341.869 593.651 345.088 585.591H346.944L336.175 615.721H259.12V613.862H261.534Z" fill="#385182"/>
<path d="M485.184 613.862H486.669V615.721H444.893V613.862H446.564C449.163 613.862 451.082 613.056 452.32 611.444C453.681 609.708 454.362 608.096 454.362 606.608C454.362 605.12 454.114 603.632 453.619 602.144L441.736 570.526H391.604L379.163 602.33C378.668 603.818 378.421 605.306 378.421 606.794C378.421 608.158 379.04 609.708 380.278 611.444C381.639 613.056 383.62 613.862 386.219 613.862H387.89V615.721H350.569V613.862H352.241C355.335 613.862 358.368 612.87 361.339 610.886C364.309 608.902 366.723 605.988 368.58 602.144L410.543 502.082C415.123 492.039 417.413 485.653 417.413 482.925H419.084L468.845 602.144C470.578 605.988 472.93 608.902 475.9 610.886C478.871 612.87 481.966 613.862 485.184 613.862ZM393.832 564.946H439.508L417.227 505.244L393.832 564.946Z" fill="#385182"/>
<path d="M555.696 618.325C535.89 618.201 519.799 611.94 507.42 599.54C495.166 587.141 489.038 570.836 489.038 550.625C489.038 530.414 495.166 514.109 507.42 501.71C519.799 489.187 535.89 482.925 555.696 482.925C572.778 482.925 587.818 487.141 600.815 495.572L604.528 521.797H602.857C600.134 511.133 594.626 502.95 586.332 497.246C578.162 491.419 567.95 488.505 555.696 488.505C539.975 488.505 527.226 494.208 517.447 505.616C507.792 517.023 502.964 532.026 502.964 550.625C502.964 569.224 507.792 584.227 517.447 595.635C527.226 606.918 539.975 612.622 555.696 612.746C563.742 612.746 571.354 611.32 578.534 608.468C585.837 605.616 592.212 601.648 597.658 596.565V563.644C597.658 560.917 596.792 558.871 595.059 557.507C593.45 556.019 591.16 555.275 588.189 555.275H585.218V553.415H621.61V555.275H618.825C615.731 555.275 613.379 556.019 611.77 557.507C610.16 558.871 609.418 560.917 609.542 563.644V594.333C606.323 598.548 602.486 602.33 598.03 605.678C593.573 609.026 587.57 612.002 580.019 614.606C572.592 617.085 564.484 618.325 555.696 618.325Z" fill="#385182"/>
<path d="M670.714 491.295H658.831V602.144C658.831 605.368 659.945 608.158 662.173 610.514C664.525 612.746 667.372 613.862 670.714 613.862H672.942L673.128 615.721H632.465V613.862H634.879C638.097 613.862 640.821 612.746 643.049 610.514C645.401 608.282 646.638 605.554 646.762 602.33V499.106C646.638 495.882 645.401 493.154 643.049 490.923C640.821 488.567 638.097 487.389 634.879 487.389H632.465V485.529H682.598C693.862 485.529 702.712 488.691 709.149 495.014C715.586 501.214 718.804 509.336 718.804 519.379C718.804 529.298 715.71 537.916 709.521 545.231C703.455 552.423 696.028 556.019 687.24 556.019C689.096 556.887 691.262 558.623 693.738 561.227C696.338 563.706 698.628 566.31 700.608 569.038C711.253 584.289 718.185 593.713 721.404 597.309C724.622 600.78 726.912 603.198 728.274 604.562C729.635 605.802 731.121 607.042 732.73 608.282C734.339 609.522 735.948 610.514 737.557 611.258C741.147 612.994 744.984 613.862 749.069 613.862V615.721H738.857C733.534 615.721 728.583 614.792 724.003 612.932C719.423 610.948 715.957 608.964 713.605 606.98C711.377 604.872 709.397 602.888 707.664 601.028C706.055 599.044 701.475 592.597 693.924 581.685C686.373 570.774 681.979 564.574 680.741 563.086C679.503 561.475 678.203 559.925 676.842 558.437C672.881 554.221 668.919 552.113 664.958 552.113V550.253C665.949 550.377 667.248 550.439 668.858 550.439C670.467 550.439 672.447 550.377 674.799 550.253C690.148 549.881 699.804 543.434 703.765 530.91C704.507 528.43 704.879 526.137 704.879 524.029C704.879 521.797 704.879 520.371 704.879 519.751C704.631 511.443 702.465 504.748 698.38 499.664C694.295 494.58 688.787 491.853 681.855 491.481C678.884 491.357 675.171 491.295 670.714 491.295Z" fill="#385182"/>
<path d="M754.915 613.862C758.133 613.862 760.857 612.746 763.085 610.514C765.437 608.158 766.675 605.368 766.798 602.144V497.99C766.798 495.014 765.622 492.534 763.271 490.551C760.919 488.443 758.133 487.389 754.915 487.389H752.687L752.501 485.529H806.904C810.742 485.529 814.888 485.157 819.344 484.413C823.924 483.669 827.143 482.925 829 482.181V505.616H827.143V502.268C827.143 499.292 826.091 496.75 823.986 494.642C822.006 492.534 819.592 491.419 816.745 491.295H778.867V548.765H810.246C812.722 548.641 814.826 547.711 816.559 545.975C818.292 544.24 819.159 542.07 819.159 539.466V536.862H821.016V566.248H819.159V563.458C819.159 560.979 818.292 558.871 816.559 557.135C814.95 555.399 812.908 554.469 810.432 554.345H778.867V609.956H805.419C814.579 609.956 821.573 607.91 826.4 603.818C831.228 599.726 835.251 593.651 838.469 585.591H840.326L829.557 615.721H752.501V613.862H754.915Z" fill="#385182"/>
<path d="M859.849 608.096C859.478 606.36 859.292 603.012 859.292 598.052C859.292 593.093 860.221 587.823 862.077 582.243H863.749C863.625 583.607 863.563 584.971 863.563 586.335C863.563 593.899 865.853 600.222 870.433 605.306C875.013 610.266 881.078 612.746 888.629 612.746C896.427 612.746 902.802 610.39 907.754 605.678C912.829 600.966 915.366 595.077 915.366 588.009C915.366 580.817 912.952 574.99 908.125 570.526L872.475 537.42C865.791 531.22 862.449 523.719 862.449 514.915C862.449 506.112 865.358 498.61 871.176 492.41C877.117 486.087 885.101 482.925 895.128 482.925C899.831 482.925 905.154 483.545 911.096 484.785H918.337V507.662H916.666C916.666 501.834 914.624 497.184 910.539 493.712C906.578 490.241 901.441 488.505 895.128 488.505C888.815 488.505 883.492 490.613 879.16 494.828C874.951 499.044 872.847 504.314 872.847 510.637C872.847 516.961 875.322 522.417 880.274 527.005L916.852 560.855C923.041 566.558 926.135 574.37 926.135 584.289C926.135 594.209 922.979 602.392 916.666 608.84C910.353 615.164 901.936 618.325 891.414 618.325C885.968 618.325 880.15 617.457 873.961 615.721C867.895 614.11 863.191 611.568 859.849 608.096Z" fill="#385182"/>
<circle cx="463" cy="194" r="194" fill="#2F51A9"/>
<path d="M645.596 174.3C644.7 165.966 643.238 157.703 641.222 149.567C636.435 161.127 630.036 171.952 622.215 181.72L645.596 174.3Z" fill="#D4E4B0"/>
<path d="M645.596 174.3C644.7 165.966 643.238 157.703 641.222 149.567C636.435 161.127 630.036 171.952 622.215 181.72L645.596 174.3Z" fill="url(#paint0_linear_23_814)"/>
<path d="M284.777 149.567C282.749 157.7 281.288 165.964 280.403 174.3L303.784 181.72C295.955 171.958 289.555 161.132 284.777 149.567Z" fill="#D4E4B0"/>
<path d="M284.777 149.567C282.749 157.7 281.288 165.964 280.403 174.3L303.784 181.72C295.955 171.958 289.555 161.132 284.777 149.567Z" fill="url(#paint1_linear_23_814)"/>
<path d="M388.307 114.917C394.898 117.838 401.719 120.213 408.699 122.017C427.019 125.646 436.991 113.337 430.774 96.3217C428.553 89.2128 428.742 81.5695 431.312 74.5791C433.881 67.5887 438.687 61.6426 444.983 57.6647C449.563 47.5539 454.67 37.5347 460.681 29.6911C461.207 29.1798 461.911 28.8938 462.645 28.8938C463.378 28.8938 464.083 29.1798 464.608 29.6911C470.494 37.3973 475.429 47.2219 479.94 57.1724C486.571 60.9817 491.702 66.9417 494.484 74.0654C497.266 81.1891 497.531 89.0493 495.237 96.3446C489.031 113.36 498.946 125.669 517.323 122.04C549.243 113.794 576.886 93.8267 594.747 66.1152C577.64 48.4685 557.163 34.4382 534.53 24.8569C511.897 15.2755 487.571 10.3384 462.994 10.3384C438.417 10.3384 414.09 15.2755 391.458 24.8569C368.825 34.4382 348.348 48.4685 331.241 66.1152C345.156 87.5478 364.975 104.497 388.307 114.917Z" fill="#D4E4B0"/>
<path d="M388.307 114.917C394.898 117.838 401.719 120.213 408.699 122.017C427.019 125.646 436.991 113.337 430.774 96.3217C428.553 89.2128 428.742 81.5695 431.312 74.5791C433.881 67.5887 438.687 61.6426 444.983 57.6647C449.563 47.5539 454.67 37.5347 460.681 29.6911C461.207 29.1798 461.911 28.8938 462.645 28.8938C463.378 28.8938 464.083 29.1798 464.608 29.6911C470.494 37.3973 475.429 47.2219 479.94 57.1724C486.571 60.9817 491.702 66.9417 494.484 74.0654C497.266 81.1891 497.531 89.0493 495.237 96.3446C489.031 113.36 498.946 125.669 517.323 122.04C549.243 113.794 576.886 93.8267 594.747 66.1152C577.64 48.4685 557.163 34.4382 534.53 24.8569C511.897 15.2755 487.571 10.3384 462.994 10.3384C438.417 10.3384 414.09 15.2755 391.458 24.8569C368.825 34.4382 348.348 48.4685 331.241 66.1152C345.156 87.5478 364.975 104.497 388.307 114.917Z" fill="url(#paint2_linear_23_814)"/>
<path d="M465.559 370.527V370.596C465.51 370.641 465.457 370.679 465.399 370.711L465.193 370.871L464.964 371.02L464.586 371.203L464.471 371.272C464.471 371.272 464.402 371.272 464.38 371.272H464.082C463.454 371.455 462.786 371.455 462.158 371.272H461.78C461.736 371.253 461.694 371.23 461.655 371.203L461.277 371.02L461.048 370.871L460.853 370.711L460.681 370.596C460.681 370.596 460.681 370.596 460.624 370.527C436.167 346.058 402.287 345.176 365.144 349.264C394.483 367.814 428.483 377.661 463.195 377.661C497.906 377.661 531.906 367.814 561.245 349.264C523.896 345.176 490.027 346.058 465.559 370.527Z" fill="#D4E4B0"/>
<path d="M465.559 370.527V370.596C465.51 370.641 465.457 370.679 465.399 370.711L465.193 370.871L464.964 371.02L464.586 371.203L464.471 371.272C464.471 371.272 464.402 371.272 464.38 371.272H464.082C463.454 371.455 462.786 371.455 462.158 371.272H461.78C461.736 371.253 461.694 371.23 461.655 371.203L461.277 371.02L461.048 370.871L460.853 370.711L460.681 370.596C460.681 370.596 460.681 370.596 460.624 370.527C436.167 346.058 402.287 345.176 365.144 349.264C394.483 367.814 428.483 377.661 463.195 377.661C497.906 377.661 531.906 367.814 561.245 349.264C523.896 345.176 490.027 346.058 465.559 370.527Z" fill="url(#paint3_linear_23_814)"/>
<path d="M434.484 345.978C408.298 330.485 373.159 328.344 336.21 326.798C342.344 332.657 348.874 338.086 355.755 343.046C384.185 339.474 411.206 337.859 434.484 345.978Z" fill="#D4E4B0"/>
<path d="M434.484 345.978C408.298 330.485 373.159 328.344 336.21 326.798C342.344 332.657 348.874 338.086 355.755 343.046C384.185 339.474 411.206 337.859 434.484 345.978Z" fill="url(#paint4_linear_23_814)"/>
<path d="M570.245 343.046C577.135 338.085 583.677 332.656 589.824 326.798C552.875 328.344 517.69 330.485 491.561 345.978C514.839 337.859 541.803 339.474 570.245 343.046Z" fill="#D4E4B0"/>
<path d="M570.245 343.046C577.135 338.085 583.677 332.656 589.824 326.798C552.875 328.344 517.69 330.485 491.561 345.978C514.839 337.859 541.803 339.474 570.245 343.046Z" fill="url(#paint5_linear_23_814)"/>
<path d="M498.317 334.241C525.67 322.172 559.745 320.763 595.091 319.355L597.266 319.263C602.57 313.567 607.507 307.539 612.048 301.217C603.804 303.015 595.503 304.652 587.248 306.347C554.158 313.011 522.27 319.447 498.317 334.241Z" fill="#D4E4B0"/>
<path d="M498.317 334.241C525.67 322.172 559.745 320.763 595.091 319.355L597.266 319.263C602.57 313.567 607.507 307.539 612.048 301.217C603.804 303.015 595.503 304.652 587.248 306.347C554.158 313.011 522.27 319.447 498.317 334.241Z" fill="url(#paint6_linear_23_814)"/>
<path d="M427.683 334.241C403.73 319.447 371.842 313.011 338.752 306.37C330.485 304.71 322.195 303.038 313.94 301.24C318.501 307.545 323.453 313.557 328.768 319.24L330.955 319.332C366.255 320.763 400.329 322.172 427.683 334.241Z" fill="#D4E4B0"/>
<path d="M427.683 334.241C403.73 319.447 371.842 313.011 338.752 306.37C330.485 304.71 322.195 303.038 313.94 301.24C318.501 307.545 323.453 313.557 328.768 319.24L330.955 319.332C366.255 320.763 400.329 322.172 427.683 334.241Z" fill="url(#paint7_linear_23_814)"/>
<path d="M430.603 327.462C410.211 311.752 382.364 302.042 353.511 292.057C333.806 285.187 313.883 278.316 295.563 269.351C299.168 277.35 303.343 285.079 308.055 292.481C318.703 294.954 329.501 297.061 340.218 299.271C373.594 305.969 405.814 312.496 430.603 327.462Z" fill="#D4E4B0"/>
<path d="M430.603 327.462C410.211 311.752 382.364 302.042 353.511 292.057C333.806 285.187 313.883 278.316 295.563 269.351C299.168 277.35 303.343 285.079 308.055 292.481C318.703 294.954 329.501 297.061 340.218 299.271C373.594 305.969 405.814 312.496 430.603 327.462Z" fill="url(#paint8_linear_23_814)"/>
<path d="M495.397 327.462C520.175 312.496 552.395 305.969 585.851 299.271C596.58 297.118 607.366 294.954 618.014 292.481C622.728 285.084 626.903 277.358 630.506 269.362C612.106 278.316 592.183 285.187 572.489 292.057C543.624 302.042 515.79 311.752 495.397 327.462Z" fill="#D4E4B0"/>
<path d="M495.397 327.462C520.175 312.496 552.395 305.969 585.851 299.271C596.58 297.118 607.366 294.954 618.014 292.481C622.728 285.084 626.903 277.358 630.506 269.362C612.106 278.316 592.183 285.187 572.489 292.057C543.624 302.042 515.79 311.752 495.397 327.462Z" fill="url(#paint9_linear_23_814)"/>
<path d="M554.57 279.988C527.09 294.118 500.595 307.756 483.913 327.519C505.553 307.618 537.212 296.603 570.108 285.152C592.297 277.469 614.762 269.671 634.799 258.896C641.242 241.852 645.101 223.94 646.249 205.754C629.109 241.675 591.347 261.141 554.57 279.988Z" fill="#D4E4B0"/>
<path d="M554.57 279.988C527.09 294.118 500.595 307.756 483.913 327.519C505.553 307.618 537.212 296.603 570.108 285.152C592.297 277.469 614.762 269.671 634.799 258.896C641.242 241.852 645.101 223.94 646.249 205.754C629.109 241.675 591.347 261.141 554.57 279.988Z" fill="url(#paint10_linear_23_814)"/>
<path d="M442.121 327.553C425.439 307.79 398.944 294.152 371.464 280.022C334.676 261.106 296.914 241.652 279.785 205.823C280.932 224.016 284.791 241.936 291.235 258.988C311.261 269.751 333.737 277.56 355.927 285.244C388.788 296.637 420.435 307.618 442.121 327.553Z" fill="#D4E4B0"/>
<path d="M442.121 327.553C425.439 307.79 398.944 294.152 371.464 280.022C334.676 261.106 296.914 241.652 279.785 205.823C280.932 224.016 284.791 241.936 291.235 258.988C311.261 269.751 333.737 277.56 355.927 285.244C388.788 296.637 420.435 307.618 442.121 327.553Z" fill="url(#paint11_linear_23_814)"/>
<path d="M646.203 181.708C646.203 182.143 646.272 182.567 646.306 183.002C646.409 182.51 646.558 182.063 646.661 181.559L646.203 181.708Z" fill="#D4E4B0"/>
<path d="M646.203 181.708C646.203 182.143 646.272 182.567 646.306 183.002C646.409 182.51 646.558 182.063 646.661 181.559L646.203 181.708Z" fill="url(#paint12_linear_23_814)"/>
<path d="M612.724 192.311C597.664 207.479 579.139 218.753 558.747 225.159C538.356 231.565 516.711 232.91 495.684 229.079C496.371 248.545 503.882 272.064 522.843 288.69C532.083 283.423 541.701 278.476 551.25 273.564C593.168 252.014 636.379 229.732 646.284 183.025C646.284 182.59 646.203 182.166 646.18 181.731L612.724 192.311Z" fill="#D4E4B0"/>
<path d="M612.724 192.311C597.664 207.479 579.139 218.753 558.747 225.159C538.356 231.565 516.711 232.91 495.684 229.079C496.371 248.545 503.882 272.064 522.843 288.69C532.083 283.423 541.701 278.476 551.25 273.564C593.168 252.014 636.379 229.732 646.284 183.025C646.284 182.59 646.203 182.166 646.18 181.731L612.724 192.311Z" fill="url(#paint13_linear_23_814)"/>
<path d="M279.338 181.559C279.441 182.052 279.59 182.498 279.693 182.979C279.693 182.556 279.762 182.132 279.785 181.708L279.338 181.559Z" fill="#D4E4B0"/>
<path d="M279.338 181.559C279.441 182.052 279.59 182.498 279.693 182.979C279.693 182.556 279.762 182.132 279.785 181.708L279.338 181.559Z" fill="url(#paint14_linear_23_814)"/>
<path d="M374.739 273.541C384.288 278.454 393.906 283.4 403.146 288.667C422.118 272.041 429.629 248.591 430.316 229.056C409.282 232.9 387.627 231.563 367.225 225.161C346.823 218.759 328.287 207.484 313.219 192.311L279.785 181.708C279.785 182.132 279.716 182.556 279.693 182.979C289.597 229.709 332.821 251.98 374.739 273.541Z" fill="#D4E4B0"/>
<path d="M374.739 273.541C384.288 278.454 393.906 283.4 403.146 288.667C422.118 272.041 429.629 248.591 430.316 229.056C409.282 232.9 387.627 231.563 367.225 225.161C346.823 218.759 328.287 207.484 313.219 192.311L279.785 181.708C279.785 182.132 279.716 182.556 279.693 182.979C289.597 229.709 332.821 251.98 374.739 273.541Z" fill="url(#paint15_linear_23_814)"/>
<mask id="path-5-outside-1_23_814" maskUnits="userSpaceOnUse" x="269.338" y="16.9749" width="388" height="305" fill="black">
<rect fill="white" x="269.338" y="16.9749" width="388" height="305"/>
<path d="M643.748 68.4641C643.238 70.0823 642.692 71.7476 642.04 73.4485C636.822 87.1496 628.472 99.6578 616.944 108.882L614.678 110.701L616.73 108.646C624.032 101.075 629.799 92.1719 633.714 82.4251C635.577 77.8381 637.026 73.0948 638.043 68.2515C638.541 65.8184 638.944 63.3734 639.229 60.9048C639.419 59.3103 640.415 56.1803 639.846 54.6567C636.628 45.3122 632.296 36.3859 626.942 28.0694C620.883 48.6363 610.417 67.6501 596.267 83.7999C582.116 99.9496 564.617 112.851 544.975 121.615C544.086 122.005 543.196 122.395 542.307 122.796C525.382 129.883 501.092 137.112 488.248 118.839C486.867 116.517 485.678 114.088 484.69 111.575C478.072 93.6931 491.948 83.0983 483.432 69.7043C483.1 69.1728 482.733 68.6531 482.329 68.1216C481.326 66.837 480.244 65.6143 479.092 64.4601C476.506 61.8261 473.375 59.0741 470.552 56.7237L470.659 57.137C470.659 57.137 466.84 60.0545 463.057 60.0545C459.285 60.0545 455.466 57.137 455.466 57.137L455.573 56.7237C452.598 59.1586 449.748 61.7406 447.033 64.4601C445.874 65.6113 444.788 66.8343 443.784 68.1216C443.38 68.6531 443.013 69.1728 442.681 69.7043C434.165 83.0983 448.053 93.6931 441.494 111.575C440.501 114.086 439.312 116.515 437.936 118.839C425.092 137.112 400.79 129.895 383.877 122.796C382.988 122.43 382.098 122.04 381.209 121.615C361.525 112.859 343.985 99.9508 329.801 83.7834C315.616 67.6161 305.125 48.5747 299.053 27.9749C293.703 36.2939 289.371 45.2196 286.149 54.5622C285.639 56.0622 286.587 59.2159 286.765 60.8104C287.05 63.275 287.445 65.7239 287.951 68.157C288.964 72.9999 290.409 77.7432 292.268 82.3306C296.184 92.1041 301.959 101.032 309.276 108.623L311.316 110.678L309.051 108.859C297.534 99.6342 289.185 87.126 283.966 73.4249C283.314 71.7241 282.78 70.0586 282.258 68.4405C279.301 81.9022 278.584 95.7562 280.135 109.449C280.456 112.331 280.906 115.19 281.44 118.024C281.689 119.324 284.393 121.249 285.354 122.194C286.943 123.777 288.544 125.324 290.24 126.788C293.636 129.696 297.27 132.315 301.104 134.619C310.226 140.266 320.489 143.832 331.158 145.061L334.076 145.273L331.146 145.379C322.641 145.552 314.183 144.079 306.24 141.045C302.235 139.575 298.35 137.802 294.617 135.741C292.826 134.749 291.059 133.674 289.351 132.588C288.343 131.95 284.5 130.226 284.168 129.044C288.892 145.083 296.64 160.079 306.999 173.231C308.09 173.597 309.3 173.975 310.557 174.353C313.202 175.179 316.487 175.994 319.903 176.715C323.319 177.435 327.114 178.168 330.897 178.687C337.853 179.673 344.865 180.209 351.89 180.294C357.666 180.376 361.521 180.057 361.521 180.057C361.521 180.057 357.725 180.837 351.949 181.451C339.074 182.883 326.072 182.76 313.226 181.085L313.878 181.298L315.835 183.247C324.212 191.624 333.735 198.781 344.122 204.507L344.976 204.802C359.386 209.822 377.757 208.854 391.076 201.046C388.837 202.765 386.434 204.261 383.901 205.511C381.31 206.855 378.617 207.997 375.848 208.924C372.653 210.025 369.372 210.862 366.039 211.428C364.26 211.747 362.481 211.96 360.679 212.113C369.312 215.33 378.278 217.58 387.412 218.822H387.815C402.118 218.964 416.374 216.614 428.401 208.393C430.655 206.93 432.763 205.257 434.699 203.397C433.035 205.539 431.168 207.517 429.124 209.302C424.612 213.349 419.554 216.748 414.097 219.401L413.291 219.744C417.936 219.432 422.561 218.864 427.144 218.043L440.89 215.562L440.403 229.476C439.538 254.079 429.966 277.099 413.907 293.777C422.625 299.187 430.571 306.096 440.166 309.935C441.477 310.525 442.868 310.923 444.294 311.116C448.765 311.541 452.596 307.573 452.596 303.191V189.684H421.522C415.698 189.684 405.985 196.085 405.985 196.085L389.072 179.207L399.651 169.038L406.317 162.624C410.437 166.729 416.026 169.036 421.854 169.038H452.631V130.415L444.329 122.147L463.021 103.52L481.701 122.123L473.399 130.391V169.014H504.235C510.063 169.01 515.651 166.703 519.772 162.6L526.438 169.014L537.005 179.183L520.069 196.062C520.069 196.062 510.355 189.66 504.532 189.66H473.399V303.155C473.399 307.502 477.277 311.506 481.701 311.081C483.123 310.888 484.509 310.49 485.816 309.899C495.423 306.061 503.358 299.151 512.087 293.742C496.028 277.064 486.457 254.044 485.591 229.441L485.093 215.527L498.851 218.007C503.453 218.83 508.098 219.398 512.763 219.708L511.956 219.366C506.476 216.736 501.393 213.353 496.858 209.314C494.813 207.526 492.942 205.549 491.272 203.409C493.213 205.267 495.326 206.94 497.582 208.405C509.596 216.673 523.864 219.035 538.168 218.834H538.63C547.764 217.594 556.73 215.344 565.363 212.125C563.584 211.972 561.805 211.759 560.014 211.44C556.66 210.904 553.356 210.094 550.135 209.019C547.366 208.089 544.674 206.948 542.082 205.605C539.568 204.354 537.184 202.859 534.965 201.141C548.284 208.948 566.644 209.917 581.066 204.897L581.92 204.601C592.307 198.876 601.83 191.718 610.207 183.341L612.152 181.392L612.816 181.18C599.97 182.854 586.968 182.977 574.092 181.546C568.305 180.932 564.521 180.152 564.521 180.152C564.521 180.152 568.376 180.471 574.14 180.388C581.169 180.304 588.185 179.768 595.145 178.782C598.916 178.262 602.664 177.601 606.139 176.809C609.614 176.018 612.84 175.238 615.485 174.447C616.789 174.069 618.011 173.691 619.043 173.325C629.397 160.171 637.145 145.176 641.874 129.139C641.542 130.32 637.699 132.033 636.679 132.682C634.948 133.769 633.216 134.844 631.425 135.836C627.688 137.897 623.799 139.67 619.79 141.139C611.848 144.176 603.389 145.648 594.884 145.474L591.954 145.368L594.872 145.155C605.537 143.891 615.789 140.289 624.89 134.608C628.728 132.309 632.362 129.689 635.754 126.777C637.462 125.312 639.063 123.765 640.652 122.182C641.601 121.237 644.317 119.312 644.566 118.013C645.096 115.178 645.531 112.32 645.871 109.438C647.413 95.7559 646.695 81.9151 643.748 68.4641ZM446.666 78.3857C446.666 78.3857 443.001 75.3501 444.91 71.1453C445.405 69.8544 446.392 68.8102 447.655 68.2396C448.919 67.6689 450.358 67.6181 451.659 68.098C450.449 76.732 446.666 78.3857 446.666 78.3857ZM479.329 78.3857C479.329 78.3857 475.557 76.7439 474.347 68.098C475.649 67.6181 477.087 67.6689 478.351 68.2396C479.615 68.8102 480.601 69.8544 481.096 71.1453C482.994 75.3501 479.329 78.3857 479.329 78.3857Z"/>
</mask>
<path d="M643.748 68.4641C643.238 70.0823 642.692 71.7476 642.04 73.4485C636.822 87.1496 628.472 99.6578 616.944 108.882L614.678 110.701L616.73 108.646C624.032 101.075 629.799 92.1719 633.714 82.4251C635.577 77.8381 637.026 73.0948 638.043 68.2515C638.541 65.8184 638.944 63.3734 639.229 60.9048C639.419 59.3103 640.415 56.1803 639.846 54.6567C636.628 45.3122 632.296 36.3859 626.942 28.0694C620.883 48.6363 610.417 67.6501 596.267 83.7999C582.116 99.9496 564.617 112.851 544.975 121.615C544.086 122.005 543.196 122.395 542.307 122.796C525.382 129.883 501.092 137.112 488.248 118.839C486.867 116.517 485.678 114.088 484.69 111.575C478.072 93.6931 491.948 83.0983 483.432 69.7043C483.1 69.1728 482.733 68.6531 482.329 68.1216C481.326 66.837 480.244 65.6143 479.092 64.4601C476.506 61.8261 473.375 59.0741 470.552 56.7237L470.659 57.137C470.659 57.137 466.84 60.0545 463.057 60.0545C459.285 60.0545 455.466 57.137 455.466 57.137L455.573 56.7237C452.598 59.1586 449.748 61.7406 447.033 64.4601C445.874 65.6113 444.788 66.8343 443.784 68.1216C443.38 68.6531 443.013 69.1728 442.681 69.7043C434.165 83.0983 448.053 93.6931 441.494 111.575C440.501 114.086 439.312 116.515 437.936 118.839C425.092 137.112 400.79 129.895 383.877 122.796C382.988 122.43 382.098 122.04 381.209 121.615C361.525 112.859 343.985 99.9508 329.801 83.7834C315.616 67.6161 305.125 48.5747 299.053 27.9749C293.703 36.2939 289.371 45.2196 286.149 54.5622C285.639 56.0622 286.587 59.2159 286.765 60.8104C287.05 63.275 287.445 65.7239 287.951 68.157C288.964 72.9999 290.409 77.7432 292.268 82.3306C296.184 92.1041 301.959 101.032 309.276 108.623L311.316 110.678L309.051 108.859C297.534 99.6342 289.185 87.126 283.966 73.4249C283.314 71.7241 282.78 70.0586 282.258 68.4405C279.301 81.9022 278.584 95.7562 280.135 109.449C280.456 112.331 280.906 115.19 281.44 118.024C281.689 119.324 284.393 121.249 285.354 122.194C286.943 123.777 288.544 125.324 290.24 126.788C293.636 129.696 297.27 132.315 301.104 134.619C310.226 140.266 320.489 143.832 331.158 145.061L334.076 145.273L331.146 145.379C322.641 145.552 314.183 144.079 306.24 141.045C302.235 139.575 298.35 137.802 294.617 135.741C292.826 134.749 291.059 133.674 289.351 132.588C288.343 131.95 284.5 130.226 284.168 129.044C288.892 145.083 296.64 160.079 306.999 173.231C308.09 173.597 309.3 173.975 310.557 174.353C313.202 175.179 316.487 175.994 319.903 176.715C323.319 177.435 327.114 178.168 330.897 178.687C337.853 179.673 344.865 180.209 351.89 180.294C357.666 180.376 361.521 180.057 361.521 180.057C361.521 180.057 357.725 180.837 351.949 181.451C339.074 182.883 326.072 182.76 313.226 181.085L313.878 181.298L315.835 183.247C324.212 191.624 333.735 198.781 344.122 204.507L344.976 204.802C359.386 209.822 377.757 208.854 391.076 201.046C388.837 202.765 386.434 204.261 383.901 205.511C381.31 206.855 378.617 207.997 375.848 208.924C372.653 210.025 369.372 210.862 366.039 211.428C364.26 211.747 362.481 211.96 360.679 212.113C369.312 215.33 378.278 217.58 387.412 218.822H387.815C402.118 218.964 416.374 216.614 428.401 208.393C430.655 206.93 432.763 205.257 434.699 203.397C433.035 205.539 431.168 207.517 429.124 209.302C424.612 213.349 419.554 216.748 414.097 219.401L413.291 219.744C417.936 219.432 422.561 218.864 427.144 218.043L440.89 215.562L440.403 229.476C439.538 254.079 429.966 277.099 413.907 293.777C422.625 299.187 430.571 306.096 440.166 309.935C441.477 310.525 442.868 310.923 444.294 311.116C448.765 311.541 452.596 307.573 452.596 303.191V189.684H421.522C415.698 189.684 405.985 196.085 405.985 196.085L389.072 179.207L399.651 169.038L406.317 162.624C410.437 166.729 416.026 169.036 421.854 169.038H452.631V130.415L444.329 122.147L463.021 103.52L481.701 122.123L473.399 130.391V169.014H504.235C510.063 169.01 515.651 166.703 519.772 162.6L526.438 169.014L537.005 179.183L520.069 196.062C520.069 196.062 510.355 189.66 504.532 189.66H473.399V303.155C473.399 307.502 477.277 311.506 481.701 311.081C483.123 310.888 484.509 310.49 485.816 309.899C495.423 306.061 503.358 299.151 512.087 293.742C496.028 277.064 486.457 254.044 485.591 229.441L485.093 215.527L498.851 218.007C503.453 218.83 508.098 219.398 512.763 219.708L511.956 219.366C506.476 216.736 501.393 213.353 496.858 209.314C494.813 207.526 492.942 205.549 491.272 203.409C493.213 205.267 495.326 206.94 497.582 208.405C509.596 216.673 523.864 219.035 538.168 218.834H538.63C547.764 217.594 556.73 215.344 565.363 212.125C563.584 211.972 561.805 211.759 560.014 211.44C556.66 210.904 553.356 210.094 550.135 209.019C547.366 208.089 544.674 206.948 542.082 205.605C539.568 204.354 537.184 202.859 534.965 201.141C548.284 208.948 566.644 209.917 581.066 204.897L581.92 204.601C592.307 198.876 601.83 191.718 610.207 183.341L612.152 181.392L612.816 181.18C599.97 182.854 586.968 182.977 574.092 181.546C568.305 180.932 564.521 180.152 564.521 180.152C564.521 180.152 568.376 180.471 574.14 180.388C581.169 180.304 588.185 179.768 595.145 178.782C598.916 178.262 602.664 177.601 606.139 176.809C609.614 176.018 612.84 175.238 615.485 174.447C616.789 174.069 618.011 173.691 619.043 173.325C629.397 160.171 637.145 145.176 641.874 129.139C641.542 130.32 637.699 132.033 636.679 132.682C634.948 133.769 633.216 134.844 631.425 135.836C627.688 137.897 623.799 139.67 619.79 141.139C611.848 144.176 603.389 145.648 594.884 145.474L591.954 145.368L594.872 145.155C605.537 143.891 615.789 140.289 624.89 134.608C628.728 132.309 632.362 129.689 635.754 126.777C637.462 125.312 639.063 123.765 640.652 122.182C641.601 121.237 644.317 119.312 644.566 118.013C645.096 115.178 645.531 112.32 645.871 109.438C647.413 95.7559 646.695 81.9151 643.748 68.4641ZM446.666 78.3857C446.666 78.3857 443.001 75.3501 444.91 71.1453C445.405 69.8544 446.392 68.8102 447.655 68.2396C448.919 67.6689 450.358 67.6181 451.659 68.098C450.449 76.732 446.666 78.3857 446.666 78.3857ZM479.329 78.3857C479.329 78.3857 475.557 76.7439 474.347 68.098C475.649 67.6181 477.087 67.6689 478.351 68.2396C479.615 68.8102 480.601 69.8544 481.096 71.1453C482.994 75.3501 479.329 78.3857 479.329 78.3857Z" fill="white"/>
<path d="M643.748 68.4641C643.238 70.0823 642.692 71.7476 642.04 73.4485C636.822 87.1496 628.472 99.6578 616.944 108.882L614.678 110.701L616.73 108.646C624.032 101.075 629.799 92.1719 633.714 82.4251C635.577 77.8381 637.026 73.0948 638.043 68.2515C638.541 65.8184 638.944 63.3734 639.229 60.9048C639.419 59.3103 640.415 56.1803 639.846 54.6567C636.628 45.3122 632.296 36.3859 626.942 28.0694C620.883 48.6363 610.417 67.6501 596.267 83.7999C582.116 99.9496 564.617 112.851 544.975 121.615C544.086 122.005 543.196 122.395 542.307 122.796C525.382 129.883 501.092 137.112 488.248 118.839C486.867 116.517 485.678 114.088 484.69 111.575C478.072 93.6931 491.948 83.0983 483.432 69.7043C483.1 69.1728 482.733 68.6531 482.329 68.1216C481.326 66.837 480.244 65.6143 479.092 64.4601C476.506 61.8261 473.375 59.0741 470.552 56.7237L470.659 57.137C470.659 57.137 466.84 60.0545 463.057 60.0545C459.285 60.0545 455.466 57.137 455.466 57.137L455.573 56.7237C452.598 59.1586 449.748 61.7406 447.033 64.4601C445.874 65.6113 444.788 66.8343 443.784 68.1216C443.38 68.6531 443.013 69.1728 442.681 69.7043C434.165 83.0983 448.053 93.6931 441.494 111.575C440.501 114.086 439.312 116.515 437.936 118.839C425.092 137.112 400.79 129.895 383.877 122.796C382.988 122.43 382.098 122.04 381.209 121.615C361.525 112.859 343.985 99.9508 329.801 83.7834C315.616 67.6161 305.125 48.5747 299.053 27.9749C293.703 36.2939 289.371 45.2196 286.149 54.5622C285.639 56.0622 286.587 59.2159 286.765 60.8104C287.05 63.275 287.445 65.7239 287.951 68.157C288.964 72.9999 290.409 77.7432 292.268 82.3306C296.184 92.1041 301.959 101.032 309.276 108.623L311.316 110.678L309.051 108.859C297.534 99.6342 289.185 87.126 283.966 73.4249C283.314 71.7241 282.78 70.0586 282.258 68.4405C279.301 81.9022 278.584 95.7562 280.135 109.449C280.456 112.331 280.906 115.19 281.44 118.024C281.689 119.324 284.393 121.249 285.354 122.194C286.943 123.777 288.544 125.324 290.24 126.788C293.636 129.696 297.27 132.315 301.104 134.619C310.226 140.266 320.489 143.832 331.158 145.061L334.076 145.273L331.146 145.379C322.641 145.552 314.183 144.079 306.24 141.045C302.235 139.575 298.35 137.802 294.617 135.741C292.826 134.749 291.059 133.674 289.351 132.588C288.343 131.95 284.5 130.226 284.168 129.044C288.892 145.083 296.64 160.079 306.999 173.231C308.09 173.597 309.3 173.975 310.557 174.353C313.202 175.179 316.487 175.994 319.903 176.715C323.319 177.435 327.114 178.168 330.897 178.687C337.853 179.673 344.865 180.209 351.89 180.294C357.666 180.376 361.521 180.057 361.521 180.057C361.521 180.057 357.725 180.837 351.949 181.451C339.074 182.883 326.072 182.76 313.226 181.085L313.878 181.298L315.835 183.247C324.212 191.624 333.735 198.781 344.122 204.507L344.976 204.802C359.386 209.822 377.757 208.854 391.076 201.046C388.837 202.765 386.434 204.261 383.901 205.511C381.31 206.855 378.617 207.997 375.848 208.924C372.653 210.025 369.372 210.862 366.039 211.428C364.26 211.747 362.481 211.96 360.679 212.113C369.312 215.33 378.278 217.58 387.412 218.822H387.815C402.118 218.964 416.374 216.614 428.401 208.393C430.655 206.93 432.763 205.257 434.699 203.397C433.035 205.539 431.168 207.517 429.124 209.302C424.612 213.349 419.554 216.748 414.097 219.401L413.291 219.744C417.936 219.432 422.561 218.864 427.144 218.043L440.89 215.562L440.403 229.476C439.538 254.079 429.966 277.099 413.907 293.777C422.625 299.187 430.571 306.096 440.166 309.935C441.477 310.525 442.868 310.923 444.294 311.116C448.765 311.541 452.596 307.573 452.596 303.191V189.684H421.522C415.698 189.684 405.985 196.085 405.985 196.085L389.072 179.207L399.651 169.038L406.317 162.624C410.437 166.729 416.026 169.036 421.854 169.038H452.631V130.415L444.329 122.147L463.021 103.52L481.701 122.123L473.399 130.391V169.014H504.235C510.063 169.01 515.651 166.703 519.772 162.6L526.438 169.014L537.005 179.183L520.069 196.062C520.069 196.062 510.355 189.66 504.532 189.66H473.399V303.155C473.399 307.502 477.277 311.506 481.701 311.081C483.123 310.888 484.509 310.49 485.816 309.899C495.423 306.061 503.358 299.151 512.087 293.742C496.028 277.064 486.457 254.044 485.591 229.441L485.093 215.527L498.851 218.007C503.453 218.83 508.098 219.398 512.763 219.708L511.956 219.366C506.476 216.736 501.393 213.353 496.858 209.314C494.813 207.526 492.942 205.549 491.272 203.409C493.213 205.267 495.326 206.94 497.582 208.405C509.596 216.673 523.864 219.035 538.168 218.834H538.63C547.764 217.594 556.73 215.344 565.363 212.125C563.584 211.972 561.805 211.759 560.014 211.44C556.66 210.904 553.356 210.094 550.135 209.019C547.366 208.089 544.674 206.948 542.082 205.605C539.568 204.354 537.184 202.859 534.965 201.141C548.284 208.948 566.644 209.917 581.066 204.897L581.92 204.601C592.307 198.876 601.83 191.718 610.207 183.341L612.152 181.392L612.816 181.18C599.97 182.854 586.968 182.977 574.092 181.546C568.305 180.932 564.521 180.152 564.521 180.152C564.521 180.152 568.376 180.471 574.14 180.388C581.169 180.304 588.185 179.768 595.145 178.782C598.916 178.262 602.664 177.601 606.139 176.809C609.614 176.018 612.84 175.238 615.485 174.447C616.789 174.069 618.011 173.691 619.043 173.325C629.397 160.171 637.145 145.176 641.874 129.139C641.542 130.32 637.699 132.033 636.679 132.682C634.948 133.769 633.216 134.844 631.425 135.836C627.688 137.897 623.799 139.67 619.79 141.139C611.848 144.176 603.389 145.648 594.884 145.474L591.954 145.368L594.872 145.155C605.537 143.891 615.789 140.289 624.89 134.608C628.728 132.309 632.362 129.689 635.754 126.777C637.462 125.312 639.063 123.765 640.652 122.182C641.601 121.237 644.317 119.312 644.566 118.013C645.096 115.178 645.531 112.32 645.871 109.438C647.413 95.7559 646.695 81.9151 643.748 68.4641ZM446.666 78.3857C446.666 78.3857 443.001 75.3501 444.91 71.1453C445.405 69.8544 446.392 68.8102 447.655 68.2396C448.919 67.6689 450.358 67.6181 451.659 68.098C450.449 76.732 446.666 78.3857 446.666 78.3857ZM479.329 78.3857C479.329 78.3857 475.557 76.7439 474.347 68.098C475.649 67.6181 477.087 67.6689 478.351 68.2396C479.615 68.8102 480.601 69.8544 481.096 71.1453C482.994 75.3501 479.329 78.3857 479.329 78.3857Z" stroke="#2F51A9" stroke-width="20" stroke-linejoin="round" mask="url(#path-5-outside-1_23_814)"/>
<path d="M462.736 60.1133C466.242 60.1133 469.727 57.2521 469.727 57.2521C469.704 57.1346 469.674 57.0186 469.639 56.9046C468.122 51.1831 465.795 45.7354 462.736 40.7454C459.699 45.7316 457.363 51.155 455.801 56.8467L455.702 57.2521C455.702 57.2521 459.241 60.1133 462.736 60.1133Z" fill="#FCCB4B"/>
<path d="M462.736 60.1133C466.242 60.1133 469.727 57.2521 469.727 57.2521C469.704 57.1346 469.674 57.0186 469.639 56.9046C468.122 51.1831 465.795 45.7354 462.736 40.7454C459.699 45.7316 457.363 51.155 455.801 56.8467L455.702 57.2521C455.702 57.2521 459.241 60.1133 462.736 60.1133Z" stroke="black"/>
<path d="M445.31 70.9006C443.388 75.1338 447.077 78.1898 447.077 78.1898C447.077 78.1898 450.884 76.5369 452.102 67.8327C450.792 67.3496 449.344 67.4008 448.073 67.9752C446.801 68.5497 445.808 69.601 445.31 70.9006Z" fill="#8B8B8B"/>
<path d="M445.31 70.9006C443.388 75.1338 447.077 78.1898 447.077 78.1898C447.077 78.1898 450.884 76.5369 452.102 67.8327C450.792 67.3496 449.344 67.4008 448.073 67.9752C446.801 68.5497 445.808 69.601 445.31 70.9006Z" stroke="black"/>
<path d="M473.946 67.8322C475.142 76.5368 478.968 78.1898 478.968 78.1898C478.968 78.1898 482.662 75.1336 480.737 70.9002C480.241 69.6014 479.249 68.5503 477.977 67.9757C476.705 67.401 475.256 67.3494 473.946 67.8322Z" fill="#8B8B8B"/>
<path d="M473.946 67.8322C475.142 76.5368 478.968 78.1898 478.968 78.1898C478.968 78.1898 482.662 75.1336 480.737 70.9002C480.241 69.6014 479.249 68.5503 477.977 67.9757C476.705 67.401 475.256 67.3494 473.946 67.8322Z" stroke="black"/>
<defs>
<linearGradient id="paint0_linear_23_814" x1="463" y1="10.3384" x2="463" y2="377.661" gradientUnits="userSpaceOnUse">
<stop stop-color="#0094FF"/>
<stop offset="1" stop-color="#2CB6B6" stop-opacity="0"/>
</linearGradient>
<linearGradient id="paint1_linear_23_814" x1="463" y1="10.3384" x2="463" y2="377.661" gradientUnits="userSpaceOnUse">
<stop stop-color="#0094FF"/>
<stop offset="1" stop-color="#2CB6B6" stop-opacity="0"/>
</linearGradient>
<linearGradient id="paint2_linear_23_814" x1="463" y1="10.3384" x2="463" y2="377.661" gradientUnits="userSpaceOnUse">
<stop stop-color="#0094FF"/>
<stop offset="1" stop-color="#2CB6B6" stop-opacity="0"/>
</linearGradient>
<linearGradient id="paint3_linear_23_814" x1="463" y1="10.3384" x2="463" y2="377.661" gradientUnits="userSpaceOnUse">
<stop stop-color="#0094FF"/>
<stop offset="1" stop-color="#2CB6B6" stop-opacity="0"/>
</linearGradient>
<linearGradient id="paint4_linear_23_814" x1="463" y1="10.3384" x2="463" y2="377.661" gradientUnits="userSpaceOnUse">
<stop stop-color="#0094FF"/>
<stop offset="1" stop-color="#2CB6B6" stop-opacity="0"/>
</linearGradient>
<linearGradient id="paint5_linear_23_814" x1="463" y1="10.3384" x2="463" y2="377.661" gradientUnits="userSpaceOnUse">
<stop stop-color="#0094FF"/>
<stop offset="1" stop-color="#2CB6B6" stop-opacity="0"/>
</linearGradient>
<linearGradient id="paint6_linear_23_814" x1="463" y1="10.3384" x2="463" y2="377.661" gradientUnits="userSpaceOnUse">
<stop stop-color="#0094FF"/>
<stop offset="1" stop-color="#2CB6B6" stop-opacity="0"/>
</linearGradient>
<linearGradient id="paint7_linear_23_814" x1="463" y1="10.3384" x2="463" y2="377.661" gradientUnits="userSpaceOnUse">
<stop stop-color="#0094FF"/>
<stop offset="1" stop-color="#2CB6B6" stop-opacity="0"/>
</linearGradient>
<linearGradient id="paint8_linear_23_814" x1="463" y1="10.3384" x2="463" y2="377.661" gradientUnits="userSpaceOnUse">
<stop stop-color="#0094FF"/>
<stop offset="1" stop-color="#2CB6B6" stop-opacity="0"/>
</linearGradient>
<linearGradient id="paint9_linear_23_814" x1="463" y1="10.3384" x2="463" y2="377.661" gradientUnits="userSpaceOnUse">
<stop stop-color="#0094FF"/>
<stop offset="1" stop-color="#2CB6B6" stop-opacity="0"/>
</linearGradient>
<linearGradient id="paint10_linear_23_814" x1="463" y1="10.3384" x2="463" y2="377.661" gradientUnits="userSpaceOnUse">
<stop stop-color="#0094FF"/>
<stop offset="1" stop-color="#2CB6B6" stop-opacity="0"/>
</linearGradient>
<linearGradient id="paint11_linear_23_814" x1="463" y1="10.3384" x2="463" y2="377.661" gradientUnits="userSpaceOnUse">
<stop stop-color="#0094FF"/>
<stop offset="1" stop-color="#2CB6B6" stop-opacity="0"/>
</linearGradient>
<linearGradient id="paint12_linear_23_814" x1="463" y1="10.3384" x2="463" y2="377.661" gradientUnits="userSpaceOnUse">
<stop stop-color="#0094FF"/>
<stop offset="1" stop-color="#2CB6B6" stop-opacity="0"/>
</linearGradient>
<linearGradient id="paint13_linear_23_814" x1="463" y1="10.3384" x2="463" y2="377.661" gradientUnits="userSpaceOnUse">
<stop stop-color="#0094FF"/>
<stop offset="1" stop-color="#2CB6B6" stop-opacity="0"/>
</linearGradient>
<linearGradient id="paint14_linear_23_814" x1="463" y1="10.3384" x2="463" y2="377.661" gradientUnits="userSpaceOnUse">
<stop stop-color="#0094FF"/>
<stop offset="1" stop-color="#2CB6B6" stop-opacity="0"/>
</linearGradient>
<linearGradient id="paint15_linear_23_814" x1="463" y1="10.3384" x2="463" y2="377.661" gradientUnits="userSpaceOnUse">
<stop stop-color="#0094FF"/>
<stop offset="1" stop-color="#2CB6B6" stop-opacity="0"/>
</linearGradient>
</defs>
</svg>
