<svg width="522" height="144" viewBox="0 0 522 144" fill="none" xmlns="http://www.w3.org/2000/svg">
<path d="M202.12 112.911C199.989 114.175 197.144 114.808 193.584 114.808H186.885C186.885 114.875 187.021 114.819 187.293 114.638C187.565 114.435 187.803 114.074 188.007 113.555C188.234 113.035 188.347 112.279 188.347 111.286V94.6253C188.347 93.7448 188.234 93.0789 188.007 92.6274C187.803 92.1533 187.565 91.8372 187.293 91.6792C187.021 91.5212 186.885 91.4647 186.885 91.5099H193.55C197.019 91.5099 199.763 92.0743 201.78 93.203C203.571 94.1963 204.954 95.5396 205.929 97.2327C206.904 98.9259 207.392 100.833 207.392 102.956C207.392 105.258 206.927 107.256 205.997 108.949C205.091 110.62 203.798 111.941 202.12 112.911ZM200.794 94.7269C199.797 94.0722 198.731 93.5981 197.597 93.3046C196.464 93.0111 195.115 92.8644 193.55 92.8644H190.796V113.453H193.55C195.409 113.453 196.929 113.295 198.107 112.979C199.309 112.663 200.341 112.178 201.202 111.523C202.313 110.665 203.163 109.548 203.753 108.17C204.365 106.771 204.671 105.145 204.671 103.294C204.671 101.33 204.32 99.6144 203.617 98.147C202.937 96.657 201.996 95.517 200.794 94.7269Z" fill="#385182"/>
<path d="M223.278 105.766L221.102 111.15C220.762 111.986 220.592 112.674 220.592 113.216C220.592 113.961 220.932 114.492 221.612 114.808H216.749C216.975 114.808 217.304 114.582 217.735 114.13C218.166 113.679 218.665 112.787 219.231 111.455L228.108 90.4263L236.916 111.557C237.414 112.776 237.891 113.611 238.344 114.063C238.82 114.514 239.194 114.762 239.466 114.808H233.821C234.388 114.537 234.671 114.119 234.671 113.555C234.671 113.081 234.49 112.403 234.127 111.523L231.746 105.766H223.278ZM231.202 104.378L227.495 95.3364L223.856 104.378H231.202Z" fill="#385182"/>
<path d="M263.998 103.43C263.998 101.037 264.508 98.9033 265.528 97.0295C266.571 95.1558 268.022 93.6997 269.881 92.6612C271.763 91.6228 273.928 91.1035 276.377 91.1035C278.417 91.1035 280.322 91.555 282.09 92.458C283.881 93.3385 285.309 94.6704 286.375 96.4539C287.463 98.2373 288.007 100.382 288.007 102.888C288.007 105.281 287.486 107.414 286.443 109.288C285.423 111.162 283.972 112.618 282.09 113.656C280.231 114.695 278.077 115.214 275.628 115.214C273.588 115.214 271.672 114.774 269.881 113.893C268.113 112.99 266.684 111.647 265.596 109.864C264.53 108.08 263.998 105.935 263.998 103.43ZM285.287 103.396C285.287 101.341 284.856 99.4902 283.994 97.8422C283.156 96.1717 281.988 94.8736 280.492 93.948C279.018 92.9998 277.352 92.5258 275.492 92.5258C273.792 92.5258 272.273 92.9547 270.935 93.8126C269.62 94.6704 268.589 95.8895 267.841 97.4698C267.092 99.0274 266.718 100.845 266.718 102.922C266.718 104.976 267.138 106.838 267.977 108.509C268.838 110.157 270.006 111.455 271.479 112.403C272.976 113.329 274.654 113.792 276.513 113.792C278.213 113.792 279.721 113.363 281.036 112.505C282.373 111.647 283.416 110.439 284.165 108.882C284.913 107.301 285.287 105.473 285.287 103.396Z" fill="#385182"/>
<path d="M306.18 103.091C307.223 103.091 308.13 102.854 308.901 102.38C309.672 101.883 310.25 101.251 310.635 100.484C311.043 99.6934 311.247 98.8694 311.247 98.0116C311.247 97.1311 311.055 96.3071 310.669 95.5396C310.306 94.7494 309.74 94.106 308.969 93.6094C308.198 93.1127 307.257 92.8644 306.146 92.8644H303.255V111.692C303.255 112.595 303.369 113.284 303.595 113.758C303.822 114.209 304.072 114.514 304.344 114.672C304.616 114.808 304.752 114.853 304.752 114.808H299.344C299.344 114.853 299.48 114.796 299.752 114.638C300.025 114.48 300.263 114.175 300.467 113.724C300.693 113.272 300.807 112.595 300.807 111.692V94.7607C300.807 93.8351 300.693 93.1353 300.467 92.6612C300.263 92.1646 300.025 91.8372 299.752 91.6792C299.48 91.4986 299.344 91.4422 299.344 91.5099H306.078C307.846 91.5099 309.297 91.8034 310.431 92.3903C311.587 92.9547 312.415 93.6997 312.914 94.6253C313.435 95.5283 313.696 96.5216 313.696 97.6052C313.696 98.5082 313.48 99.3999 313.05 100.28C312.619 101.138 311.995 101.895 311.179 102.549C310.386 103.181 309.456 103.622 308.391 103.87L307.846 103.971L313.832 111.557C314.625 112.437 315.283 113.114 315.804 113.589C316.326 114.063 316.7 114.379 316.927 114.537C317.176 114.695 317.323 114.785 317.369 114.808H313.39L304.14 103.091H306.18Z" fill="#385182"/>
<path d="M331.52 105.766L329.344 111.15C329.004 111.986 328.834 112.674 328.834 113.216C328.834 113.961 329.174 114.492 329.854 114.808H324.991C325.217 114.808 325.546 114.582 325.977 114.13C326.408 113.679 326.906 112.787 327.473 111.455L336.349 90.4263L345.157 111.557C345.656 112.776 346.132 113.611 346.586 114.063C347.062 114.514 347.436 114.762 347.708 114.808H342.063C342.63 114.537 342.913 114.119 342.913 113.555C342.913 113.081 342.732 112.403 342.369 111.523L339.988 105.766H331.52ZM339.444 104.378L335.737 95.3364L332.098 104.378H339.444Z" fill="#385182"/>
<path d="M370.374 118.803C370.374 119.39 370.136 119.898 369.66 120.327C369.206 120.779 368.56 121.004 367.721 121.004C367.2 121.004 366.701 120.88 366.225 120.632C365.771 120.406 365.42 120.056 365.171 119.582C365.873 119.831 366.474 119.955 366.973 119.955C367.449 119.955 367.812 119.819 368.061 119.548C368.333 119.3 368.469 118.995 368.469 118.634C368.469 118.295 368.345 117.991 368.095 117.72C367.846 117.471 367.483 117.347 367.007 117.347H366.701L367.653 115.18C365.681 115.022 363.856 114.446 362.178 113.453C360.523 112.46 359.196 111.083 358.199 109.322C357.224 107.538 356.736 105.473 356.736 103.125C356.736 100.822 357.235 98.7565 358.233 96.9279C359.253 95.0993 360.693 93.6658 362.552 92.6274C364.434 91.5889 366.622 91.0697 369.115 91.0697C371.768 91.0697 374.126 91.6453 376.189 92.7967V96.5555C375.486 95.3138 374.466 94.3318 373.128 93.6094C371.791 92.8644 370.362 92.4919 368.843 92.4919C366.916 92.4919 365.239 92.9434 363.81 93.8464C362.405 94.7494 361.328 95.9911 360.579 97.5713C359.831 99.1516 359.457 100.912 359.457 102.854C359.457 105.044 359.877 106.951 360.715 108.577C361.577 110.202 362.733 111.455 364.184 112.336C365.635 113.193 367.256 113.622 369.047 113.622C371.927 113.622 374.307 112.787 376.189 111.117V112.742C375.35 113.419 374.262 113.995 372.924 114.469C371.609 114.943 370.26 115.191 368.877 115.214L368.197 116.704C368.9 116.794 369.433 117.031 369.796 117.415C370.181 117.821 370.374 118.284 370.374 118.803Z" fill="#385182"/>
<path d="M392.483 105.766L390.306 111.15C389.966 111.986 389.796 112.674 389.796 113.216C389.796 113.961 390.136 114.492 390.816 114.808H385.953C386.18 114.808 386.508 114.582 386.939 114.13C387.37 113.679 387.869 112.787 388.436 111.455L397.312 90.4263L406.12 111.557C406.619 112.776 407.095 113.611 407.548 114.063C408.024 114.514 408.398 114.762 408.67 114.808H403.025C403.592 114.537 403.875 114.119 403.875 113.555C403.875 113.081 403.694 112.403 403.331 111.523L400.951 105.766H392.483ZM400.407 104.378L396.7 95.3364L393.061 104.378H400.407ZM393.061 88.5299C393.061 87.8753 393.265 87.3673 393.673 87.0061C394.104 86.6223 394.648 86.4304 395.305 86.4304C395.963 86.4304 396.768 86.6336 397.72 87.04C398.445 87.3334 399.001 87.4802 399.386 87.4802C400.157 87.4802 400.543 86.9835 400.543 85.9902C400.543 85.7419 400.531 85.55 400.509 85.4146C400.939 85.7983 401.155 86.3401 401.155 87.04C401.155 87.6947 400.939 88.2139 400.509 88.5977C400.1 88.9589 399.568 89.1395 398.91 89.1395C398.253 89.1395 397.448 88.9363 396.496 88.5299C395.77 88.2365 395.215 88.0897 394.829 88.0897C394.058 88.0897 393.673 88.5864 393.673 89.5797C393.673 89.828 393.684 90.0199 393.707 90.1554C393.276 89.7716 393.061 89.2298 393.061 88.5299Z" fill="#385182"/>
<path d="M417.699 103.43C417.699 101.037 418.209 98.9033 419.229 97.0295C420.272 95.1558 421.723 93.6997 423.582 92.6612C425.464 91.6228 427.629 91.1035 430.078 91.1035C432.118 91.1035 434.023 91.555 435.791 92.458C437.582 93.3385 439.011 94.6704 440.076 96.4539C441.165 98.2373 441.709 100.382 441.709 102.888C441.709 105.281 441.187 107.414 440.144 109.288C439.124 111.162 437.673 112.618 435.791 113.656C433.932 114.695 431.778 115.214 429.33 115.214C427.289 115.214 425.373 114.774 423.582 113.893C421.814 112.99 420.386 111.647 419.297 109.864C418.232 108.08 417.699 105.935 417.699 103.43ZM438.988 103.396C438.988 101.341 438.557 99.4902 437.696 97.8422C436.857 96.1717 435.689 94.8736 434.193 93.948C432.719 92.9998 431.053 92.5258 429.194 92.5258C427.493 92.5258 425.974 92.9547 424.637 93.8126C423.322 94.6704 422.29 95.8895 421.542 97.4698C420.794 99.0274 420.42 100.845 420.42 102.922C420.42 104.976 420.839 106.838 421.678 108.509C422.539 110.157 423.707 111.455 425.181 112.403C426.677 113.329 428.355 113.792 430.214 113.792C431.914 113.792 433.422 113.363 434.737 112.505C436.075 111.647 437.118 110.439 437.866 108.882C438.614 107.301 438.988 105.473 438.988 103.396Z" fill="#385182"/>
<path d="M259.619 89.0072C259.894 89.0072 260.169 89.0072 260.444 89.0072V89.6951C259.162 89.8785 257.72 89.9702 256.117 89.9702C254.561 89.9702 252.615 89.6263 250.28 88.9384C247.991 88.2506 245.909 86.9666 244.032 85.0865C240.186 81.2345 237.851 76.2361 237.027 70.0912L232.838 39.4817L218.555 71.8109C217.273 74.6081 216.495 76.9468 216.22 78.827H215.534L197.748 40.1008L194.727 74.2871C194.635 75.0667 194.864 75.7546 195.414 76.3507C196.009 76.9468 196.65 77.2449 197.336 77.2449H198.435V77.864H185.113V77.1761H186.212C187.448 77.1761 188.524 76.8093 189.439 76.0756C190.401 75.296 190.996 74.2871 191.225 73.049L195.551 35.4921C191.522 27.5589 186.693 23.5923 181.062 23.5923C180.558 23.5923 180.032 23.6152 179.482 23.6611V22.9732C180.718 22.6522 181.726 22.4917 182.504 22.4917C183.282 22.4917 184.129 22.5376 185.045 22.6293C185.96 22.6751 187.036 22.8815 188.272 23.2483C189.508 23.6152 190.676 24.1655 191.774 24.8992C192.873 25.587 193.834 26.3208 194.658 27.1003C195.482 27.834 196.261 28.6595 196.993 29.5766C198.229 31.2275 199.213 32.8095 199.946 34.3228L216.495 70.2288L234.967 28.7512H235.585L241.971 69.4722C242.933 75.8921 244.993 80.753 248.152 84.0547C251.356 87.3564 255.179 89.0072 259.619 89.0072Z" fill="#385182"/>
<path d="M253.004 77.1761C254.194 77.1761 255.202 76.7634 256.026 75.938C256.895 75.0667 257.353 74.0349 257.399 72.8426V34.6667C257.353 33.4744 256.895 32.4656 256.026 31.6402C255.202 30.8147 254.194 30.402 253.004 30.402H252.111V29.7142H267.15V30.402H266.257C265.067 30.402 264.037 30.8147 263.167 31.6402C262.343 32.4656 261.908 33.4744 261.862 34.6667V72.8426C261.862 74.0349 262.297 75.0667 263.167 75.938C264.037 76.7634 265.067 77.1761 266.257 77.1761H267.15V77.864H252.111V77.1761H253.004Z" fill="#385182"/>
<path d="M276.207 77.1761C277.397 77.1761 278.404 76.7634 279.228 75.938C280.098 75.0667 280.556 74.0349 280.602 72.8426V34.7355C280.556 33.5432 280.098 32.5344 279.228 31.709C278.404 30.8377 277.397 30.402 276.207 30.402H275.314V29.7142H290.353V30.402H289.46C287.812 30.402 286.553 31.1128 285.683 32.5344C285.271 33.2222 285.065 33.9559 285.065 34.7355V75.7316H294.885C298.273 75.7316 300.859 74.975 302.645 73.4617C304.43 71.9484 305.918 69.7014 307.108 66.7207H307.795L303.812 77.864H275.314V77.1761H276.207Z" fill="#385182"/>
<path d="M358.921 77.1761H359.47V77.864H344.019V77.1761H344.637C345.599 77.1761 346.308 76.8781 346.766 76.2819C347.27 75.6399 347.521 75.0438 347.521 74.4935C347.521 73.9432 347.43 73.3929 347.247 72.8426L342.852 61.1491H324.311L319.71 72.9114C319.527 73.4617 319.436 74.012 319.436 74.5623C319.436 75.0667 319.665 75.6399 320.122 76.2819C320.626 76.8781 321.359 77.1761 322.32 77.1761H322.938V77.864H309.135V77.1761H309.753C310.898 77.1761 312.019 76.8093 313.118 76.0756C314.217 75.3418 315.11 74.2642 315.796 72.8426L331.316 35.8361C333.009 32.1217 333.856 29.76 333.856 28.7512H334.474L352.878 72.8426C353.519 74.2642 354.388 75.3418 355.487 76.0756C356.586 76.8093 357.73 77.1761 358.921 77.1761ZM325.135 59.0856H342.028L333.788 37.0054L325.135 59.0856Z" fill="#385182"/>
<path d="M384.998 78.827C377.674 78.7811 371.722 76.4653 367.144 71.8796C362.612 67.294 360.346 61.2638 360.346 53.7891C360.346 46.3144 362.612 40.2842 367.144 35.6985C371.722 31.067 377.674 28.7512 384.998 28.7512C391.316 28.7512 396.878 30.3103 401.685 33.4286L403.058 43.1273H402.44C401.433 39.1836 399.396 36.1571 396.329 34.0477C393.307 31.8924 389.53 30.8147 384.998 30.8147C379.184 30.8147 374.469 32.9242 370.852 37.143C367.282 41.3618 365.496 46.9105 365.496 53.7891C365.496 60.6676 367.282 66.2163 370.852 70.4352C374.469 74.6081 379.184 76.7176 384.998 76.7634C387.974 76.7634 390.789 76.2361 393.445 75.1813C396.146 74.1266 398.503 72.6592 400.518 70.7791V58.6041C400.518 57.5952 400.197 56.8386 399.556 56.3341C398.961 55.7839 398.114 55.5087 397.015 55.5087H395.917V54.8209H409.376V55.5087H408.346C407.201 55.5087 406.332 55.7839 405.736 56.3341C405.141 56.8386 404.867 57.5952 404.912 58.6041V69.9537C403.722 71.5128 402.303 72.9114 400.655 74.1496C399.007 75.3877 396.787 76.4883 393.994 77.4513C391.247 78.3684 388.249 78.827 384.998 78.827Z" fill="#385182"/>
<path d="M427.536 31.8465H423.141V72.8426C423.141 74.0349 423.553 75.0667 424.377 75.938C425.247 76.7634 426.3 77.1761 427.536 77.1761H428.36L428.429 77.864H413.39V77.1761H414.283C415.473 77.1761 416.48 76.7634 417.305 75.938C418.174 75.1126 418.632 74.1037 418.678 72.9114V34.7355C418.632 33.5432 418.174 32.5344 417.305 31.709C416.48 30.8377 415.473 30.402 414.283 30.402H413.39V29.7142H431.931C436.097 29.7142 439.37 30.8835 441.751 33.2222C444.131 35.5151 445.322 38.5187 445.322 42.2331C445.322 45.9017 444.177 49.0887 441.888 51.7943C439.645 54.454 436.898 55.7839 433.648 55.7839C434.335 56.1049 435.136 56.7468 436.051 57.7098C437.013 58.627 437.86 59.59 438.592 60.5988C442.529 66.2392 445.093 69.7244 446.283 71.0542C447.473 72.3382 448.32 73.2324 448.824 73.7369C449.327 74.1954 449.877 74.654 450.472 75.1126C451.067 75.5711 451.662 75.938 452.257 76.2131C453.585 76.8551 455.004 77.1761 456.515 77.1761V77.864H452.738C450.769 77.864 448.938 77.5201 447.244 76.8322C445.55 76.0985 444.269 75.3648 443.399 74.6311C442.575 73.8515 441.842 73.1178 441.201 72.4299C440.606 71.6962 438.912 69.3117 436.12 65.2762C433.327 61.2408 431.702 58.948 431.244 58.3977C430.787 57.8016 430.306 57.2283 429.802 56.6781C428.337 55.1189 426.872 54.3394 425.408 54.3394V53.6515C425.774 53.6974 426.254 53.7203 426.85 53.7203C427.445 53.7203 428.177 53.6974 429.047 53.6515C434.724 53.5139 438.294 51.1294 439.759 46.4978C440.034 45.5807 440.171 44.7323 440.171 43.9528C440.171 43.1273 440.171 42.6 440.171 42.3707C440.08 39.2983 439.279 36.822 437.768 34.9419C436.257 33.0617 434.22 32.0529 431.656 31.9153C430.558 31.8694 429.184 31.8465 427.536 31.8465Z" fill="#385182"/>
<path d="M458.677 77.1761C459.867 77.1761 460.874 76.7634 461.698 75.938C462.568 75.0667 463.026 74.0349 463.071 72.8426V34.3228C463.071 33.2222 462.637 32.3051 461.767 31.5714C460.897 30.7918 459.867 30.402 458.677 30.402H457.853L457.784 29.7142H477.904C479.323 29.7142 480.857 29.5766 482.505 29.3015C484.199 29.0263 485.389 28.7512 486.076 28.476V37.143H485.389V35.9049C485.389 34.8043 485 33.8642 484.222 33.0847C483.489 32.3051 482.596 31.8924 481.544 31.8465H467.535V53.1012H479.14C480.056 53.0554 480.834 52.7114 481.475 52.0694C482.116 51.4274 482.436 50.6249 482.436 49.6619V48.699H483.123V59.5671H482.436V58.5353C482.436 57.6181 482.116 56.8386 481.475 56.1966C480.88 55.5546 480.124 55.2106 479.209 55.1648H467.535V75.7316H477.355C480.742 75.7316 483.329 74.975 485.114 73.4617C486.9 71.9484 488.388 69.7014 489.578 66.7207H490.265L486.282 77.864H457.784V77.1761H458.677Z" fill="#385182"/>
<path d="M497.485 75.0438C497.348 74.4018 497.279 73.1636 497.279 71.3294C497.279 69.4951 497.622 67.5462 498.309 65.4826H498.927C498.881 65.987 498.858 66.4915 498.858 66.9959C498.858 69.7932 499.705 72.1319 501.399 74.012C503.093 75.8463 505.336 76.7634 508.129 76.7634C511.013 76.7634 513.371 75.8921 515.202 74.1496C517.079 72.407 518.017 70.2288 518.017 67.6149C518.017 64.9552 517.124 62.8 515.339 61.1491L502.155 48.9053C499.682 46.6125 498.446 43.8381 498.446 40.5823C498.446 37.3264 499.522 34.5521 501.674 32.2592C503.871 29.9205 506.824 28.7512 510.532 28.7512C512.272 28.7512 514.24 28.9805 516.438 29.439H519.116V37.8996H518.498C518.498 35.7444 517.742 34.0247 516.232 32.7407C514.767 31.4567 512.867 30.8147 510.532 30.8147C508.197 30.8147 506.229 31.5943 504.627 33.1534C503.07 34.7126 502.292 36.6615 502.292 39.0002C502.292 41.3389 503.207 43.3566 505.039 45.0533L518.566 57.5723C520.855 59.6817 522 62.5707 522 66.2392C522 69.9078 520.833 72.9344 518.498 75.3189C516.163 77.6576 513.05 78.827 509.159 78.827C507.145 78.827 504.993 78.506 502.704 77.864C500.461 77.2678 498.721 76.3278 497.485 75.0438Z" fill="#385182"/>
<circle cx="71.748" cy="71.748" r="71.748" fill="#2F51A9"/>
<path d="M139.278 64.4622C138.947 61.38 138.406 58.3239 137.661 55.315C135.89 59.5906 133.524 63.594 130.631 67.2064L139.278 64.4622Z" fill="#D4E4B0"/>
<path d="M139.278 64.4622C138.947 61.38 138.406 58.3239 137.661 55.315C135.89 59.5906 133.524 63.594 130.631 67.2064L139.278 64.4622Z" fill="url(#paint0_linear_61_36)"/>
<path d="M5.83467 55.315C5.08461 58.323 4.54413 61.3794 4.21708 64.4622L12.864 67.2064C9.96874 63.5961 7.60189 59.5922 5.83467 55.315Z" fill="#D4E4B0"/>
<path d="M5.83467 55.315C5.08461 58.323 4.54413 61.3794 4.21708 64.4622L12.864 67.2064C9.96874 63.5961 7.60189 59.5922 5.83467 55.315Z" fill="url(#paint1_linear_61_36)"/>
<path d="M44.1235 42.5005C46.5613 43.5807 49.0837 44.4588 51.6653 45.1261C58.4406 46.4685 62.1289 41.9161 59.8295 35.6231C59.0081 32.994 59.078 30.1673 60.0283 27.582C60.9786 24.9967 62.7561 22.7976 65.0846 21.3264C66.7784 17.5871 68.667 13.8817 70.8902 10.9808C71.0846 10.7917 71.3452 10.6859 71.6164 10.6859C71.8876 10.6859 72.1482 10.7917 72.3426 10.9808C74.5192 13.8308 76.3443 17.4643 78.0127 21.1443C80.4651 22.5532 82.3628 24.7574 83.3916 27.392C84.4205 30.0266 84.5187 32.9336 83.6701 35.6316C81.3749 41.9245 85.0421 46.477 91.8385 45.1345C103.644 42.0849 113.867 34.7004 120.473 24.4517C114.146 17.9254 106.572 12.7365 98.2021 9.19293C89.8318 5.64941 80.835 3.82349 71.7455 3.82349C62.6561 3.82349 53.6593 5.64941 45.289 9.19293C36.9186 12.7365 29.3454 17.9254 23.0185 24.4517C28.165 32.3783 35.4947 38.6465 44.1235 42.5005Z" fill="#D4E4B0"/>
<path d="M44.1235 42.5005C46.5613 43.5807 49.0837 44.4588 51.6653 45.1261C58.4406 46.4685 62.1289 41.9161 59.8295 35.6231C59.0081 32.994 59.078 30.1673 60.0283 27.582C60.9786 24.9967 62.7561 22.7976 65.0846 21.3264C66.7784 17.5871 68.667 13.8817 70.8902 10.9808C71.0846 10.7917 71.3452 10.6859 71.6164 10.6859C71.8876 10.6859 72.1482 10.7917 72.3426 10.9808C74.5192 13.8308 76.3443 17.4643 78.0127 21.1443C80.4651 22.5532 82.3628 24.7574 83.3916 27.392C84.4205 30.0266 84.5187 32.9336 83.6701 35.6316C81.3749 41.9245 85.0421 46.477 91.8385 45.1345C103.644 42.0849 113.867 34.7004 120.473 24.4517C114.146 17.9254 106.572 12.7365 98.2021 9.19293C89.8318 5.64941 80.835 3.82349 71.7455 3.82349C62.6561 3.82349 53.6593 5.64941 45.289 9.19293C36.9186 12.7365 29.3454 17.9254 23.0185 24.4517C28.165 32.3783 35.4947 38.6465 44.1235 42.5005Z" fill="url(#paint2_linear_61_36)"/>
<path d="M72.6941 137.034V137.059C72.6762 137.076 72.6563 137.09 72.6349 137.102L72.5587 137.161L72.474 137.216L72.3342 137.284L72.2919 137.309C72.2919 137.309 72.2665 137.309 72.258 137.309H72.1479C71.9156 137.377 71.6688 137.377 71.4365 137.309H71.2968C71.2804 137.303 71.2648 137.294 71.2502 137.284L71.1104 137.216L71.0258 137.161L70.9538 137.102L70.8902 137.059C70.8902 137.059 70.8902 137.06 70.8691 137.034C61.824 127.984 49.294 127.658 35.5571 129.17C46.4079 136.031 58.9822 139.672 71.8197 139.672C84.6573 139.672 97.2315 136.031 108.082 129.17C94.2692 127.658 81.7434 127.984 72.6941 137.034Z" fill="#D4E4B0"/>
<path d="M72.6941 137.034V137.059C72.6762 137.076 72.6563 137.09 72.6349 137.102L72.5587 137.161L72.474 137.216L72.3342 137.284L72.2919 137.309C72.2919 137.309 72.2665 137.309 72.258 137.309H72.1479C71.9156 137.377 71.6688 137.377 71.4365 137.309H71.2968C71.2804 137.303 71.2648 137.294 71.2502 137.284L71.1104 137.216L71.0258 137.161L70.9538 137.102L70.8902 137.059C70.8902 137.059 70.8902 137.06 70.8691 137.034C61.824 127.984 49.294 127.658 35.5571 129.17C46.4079 136.031 58.9822 139.672 71.8197 139.672C84.6573 139.672 97.2315 136.031 108.082 129.17C94.2692 127.658 81.7434 127.984 72.6941 137.034Z" fill="url(#paint3_linear_61_36)"/>
<path d="M61.2016 127.955C51.5171 122.225 38.5213 121.433 24.8563 120.861C27.1248 123.028 29.54 125.036 32.0847 126.871C42.5991 125.549 52.5927 124.952 61.2016 127.955Z" fill="#D4E4B0"/>
<path d="M61.2016 127.955C51.5171 122.225 38.5213 121.433 24.8563 120.861C27.1248 123.028 29.54 125.036 32.0847 126.871C42.5991 125.549 52.5927 124.952 61.2016 127.955Z" fill="url(#paint4_linear_61_36)"/>
<path d="M111.411 126.871C113.959 125.036 116.378 123.028 118.652 120.861C104.987 121.433 91.9741 122.225 82.3108 127.955C90.9196 124.952 100.892 125.549 111.411 126.871Z" fill="#D4E4B0"/>
<path d="M111.411 126.871C113.959 125.036 116.378 123.028 118.652 120.861C104.987 121.433 91.9741 122.225 82.3108 127.955C90.9196 124.952 100.892 125.549 111.411 126.871Z" fill="url(#paint5_linear_61_36)"/>
<path d="M84.8091 123.614C94.9255 119.15 107.527 118.63 120.6 118.109L121.404 118.075C123.366 115.968 125.192 113.739 126.871 111.401C123.822 112.066 120.752 112.671 117.699 113.298C105.461 115.763 93.6678 118.143 84.8091 123.614Z" fill="#D4E4B0"/>
<path d="M84.8091 123.614C94.9255 119.15 107.527 118.63 120.6 118.109L121.404 118.075C123.366 115.968 125.192 113.739 126.871 111.401C123.822 112.066 120.752 112.671 117.699 113.298C105.461 115.763 93.6678 118.143 84.8091 123.614Z" fill="url(#paint6_linear_61_36)"/>
<path d="M58.6863 123.614C49.8276 118.143 38.0344 115.763 25.7965 113.306C22.7391 112.692 19.6733 112.074 16.6202 111.409C18.3068 113.741 20.1384 115.964 22.1039 118.066L22.9128 118.1C35.9679 118.63 48.5699 119.15 58.6863 123.614Z" fill="#D4E4B0"/>
<path d="M58.6863 123.614C49.8276 118.143 38.0344 115.763 25.7965 113.306C22.7391 112.692 19.6733 112.074 16.6202 111.409C18.3068 113.741 20.1384 115.964 22.1039 118.066L22.9128 118.1C35.9679 118.63 48.5699 119.15 58.6863 123.614Z" fill="url(#paint7_linear_61_36)"/>
<path d="M59.7661 121.107C52.2244 115.297 41.9259 111.706 31.2548 108.013C23.9672 105.472 16.599 102.931 9.82375 99.6153C11.1571 102.574 12.701 105.432 14.4436 108.17C18.3818 109.084 22.375 109.864 26.3385 110.681C38.6823 113.158 50.5983 115.572 59.7661 121.107Z" fill="#D4E4B0"/>
<path d="M59.7661 121.107C52.2244 115.297 41.9259 111.706 31.2548 108.013C23.9672 105.472 16.599 102.931 9.82375 99.6153C11.1571 102.574 12.701 105.432 14.4436 108.17C18.3818 109.084 22.375 109.864 26.3385 110.681C38.6823 113.158 50.5983 115.572 59.7661 121.107Z" fill="url(#paint8_linear_61_36)"/>
<path d="M83.7295 121.107C92.8931 115.572 104.809 113.158 117.183 110.681C121.15 109.885 125.139 109.084 129.077 108.17C130.821 105.434 132.365 102.577 133.697 99.6195C126.892 102.931 119.524 105.472 112.241 108.013C101.565 111.706 91.2712 115.297 83.7295 121.107Z" fill="#D4E4B0"/>
<path d="M83.7295 121.107C92.8931 115.572 104.809 113.158 117.183 110.681C121.15 109.885 125.139 109.084 129.077 108.17C130.821 105.434 132.365 102.577 133.697 99.6195C126.892 102.931 119.524 105.472 112.241 108.013C101.565 111.706 91.2712 115.297 83.7295 121.107Z" fill="url(#paint9_linear_61_36)"/>
<path d="M105.614 103.549C95.4507 108.775 85.6519 113.819 79.4821 121.128C87.4855 113.768 99.194 109.694 111.36 105.459C119.566 102.618 127.875 99.7339 135.285 95.7489C137.668 89.4452 139.095 82.8208 139.52 76.0952C133.181 89.3798 119.215 96.579 105.614 103.549Z" fill="#D4E4B0"/>
<path d="M105.614 103.549C95.4507 108.775 85.6519 113.819 79.4821 121.128C87.4855 113.768 99.194 109.694 111.36 105.459C119.566 102.618 127.875 99.7339 135.285 95.7489C137.668 89.4452 139.095 82.8208 139.52 76.0952C133.181 89.3798 119.215 96.579 105.614 103.549Z" fill="url(#paint10_linear_61_36)"/>
<path d="M64.026 121.141C57.8563 113.832 48.0575 108.788 37.8946 103.562C24.289 96.5662 10.3234 89.3713 3.98848 76.1206C4.4127 82.849 5.83998 89.4763 8.22304 95.7828C15.6293 99.7635 23.9417 102.652 32.1483 105.493C44.3015 109.707 56.0058 113.768 64.026 121.141Z" fill="#D4E4B0"/>
<path d="M64.026 121.141C57.8563 113.832 48.0575 108.788 37.8946 103.562C24.289 96.5662 10.3234 89.3713 3.98848 76.1206C4.4127 82.849 5.83998 89.4763 8.22304 95.7828C15.6293 99.7635 23.9417 102.652 32.1483 105.493C44.3015 109.707 56.0058 113.768 64.026 121.141Z" fill="url(#paint11_linear_61_36)"/>
<path d="M139.503 67.2021C139.503 67.3631 139.528 67.5198 139.541 67.6807C139.579 67.4986 139.634 67.3334 139.672 67.1471L139.503 67.2021Z" fill="#D4E4B0"/>
<path d="M139.503 67.2021C139.503 67.3631 139.528 67.5198 139.541 67.6807C139.579 67.4986 139.634 67.3334 139.672 67.1471L139.503 67.2021Z" fill="url(#paint12_linear_61_36)"/>
<path d="M127.121 71.1235C121.551 76.7332 114.7 80.9027 107.158 83.2718C99.617 85.6409 91.6121 86.1385 83.8354 84.7214C84.0894 91.9206 86.8673 100.619 93.8797 106.768C97.297 104.82 100.854 102.99 104.386 101.174C119.888 93.2037 135.87 84.9628 139.532 67.6891C139.532 67.5281 139.503 67.3715 139.494 67.2105L127.121 71.1235Z" fill="#D4E4B0"/>
<path d="M127.121 71.1235C121.551 76.7332 114.7 80.9027 107.158 83.2718C99.617 85.6409 91.6121 86.1385 83.8354 84.7214C84.0894 91.9206 86.8673 100.619 93.8797 106.768C97.297 104.82 100.854 102.99 104.386 101.174C119.888 93.2037 135.87 84.9628 139.532 67.6891C139.532 67.5281 139.503 67.3715 139.494 67.2105L127.121 71.1235Z" fill="url(#paint13_linear_61_36)"/>
<path d="M3.82324 67.1471C3.86135 67.3292 3.91641 67.4943 3.95453 67.6722C3.95453 67.5155 3.97993 67.3588 3.9884 67.2021L3.82324 67.1471Z" fill="#D4E4B0"/>
<path d="M3.82324 67.1471C3.86135 67.3292 3.91641 67.4943 3.95453 67.6722C3.95453 67.5155 3.97993 67.3588 3.9884 67.2021L3.82324 67.1471Z" fill="url(#paint14_linear_61_36)"/>
<path d="M39.1056 101.165C42.6373 102.982 46.1943 104.811 49.6116 106.759C56.6282 100.61 59.4061 91.9376 59.6602 84.713C51.8808 86.1347 43.8723 85.6403 36.3268 83.2726C28.7813 80.9049 21.926 76.735 16.3534 71.1235L3.9884 67.2021C3.9884 67.3588 3.96299 67.5155 3.95453 67.6722C7.61742 84.9544 23.6029 93.1911 39.1056 101.165Z" fill="#D4E4B0"/>
<path d="M39.1056 101.165C42.6373 102.982 46.1943 104.811 49.6116 106.759C56.6282 100.61 59.4061 91.9376 59.6602 84.713C51.8808 86.1347 43.8723 85.6403 36.3268 83.2726C28.7813 80.9049 21.926 76.735 16.3534 71.1235L3.9884 67.2021C3.9884 67.3588 3.96299 67.5155 3.95453 67.6722C7.61742 84.9544 23.6029 93.1911 39.1056 101.165Z" fill="url(#paint15_linear_61_36)"/>
<mask id="path-5-outside-1_61_36" maskUnits="userSpaceOnUse" x="0.823242" y="7.34595" width="142" height="111" fill="black">
<rect fill="white" x="0.823242" y="7.34595" width="142" height="111"/>
<path d="M138.595 25.3203C138.406 25.9187 138.204 26.5347 137.963 27.1637C136.033 32.2308 132.945 36.8568 128.682 40.2684L127.844 40.9411L128.603 40.1811C131.303 37.3809 133.436 34.0883 134.884 30.4836C135.573 28.7871 136.109 27.0329 136.485 25.2417C136.669 24.3418 136.818 23.4376 136.924 22.5246C136.994 21.9349 137.362 20.7773 137.152 20.2138C135.961 16.7579 134.359 13.4567 132.379 10.3809C130.138 17.9873 126.268 25.0193 121.035 30.992C115.801 36.9648 109.329 41.7362 102.065 44.9774C101.736 45.1215 101.407 45.2657 101.078 45.4142C94.8189 48.0352 85.8357 50.7085 81.0853 43.9509C80.5748 43.0921 80.1347 42.1937 79.7694 41.2644C77.3218 34.6509 82.4538 30.7325 79.3044 25.779C79.1816 25.5824 79.0456 25.3902 78.8965 25.1936C78.5252 24.7186 78.1253 24.2663 77.699 23.8395C76.7428 22.8653 75.5848 21.8475 74.5408 20.9783L74.5803 21.1311C74.5803 21.1311 73.1679 22.2101 71.7687 22.2101C70.3738 22.2101 68.9614 21.1311 68.9614 21.1311L69.0009 20.9783C67.9008 21.8788 66.8467 22.8337 65.8427 23.8395C65.4139 24.2652 65.0125 24.7175 64.6409 25.1936C64.4917 25.3902 64.3557 25.5824 64.2329 25.779C61.0835 30.7325 66.2199 34.6509 63.7943 41.2644C63.427 42.1928 62.987 43.0911 62.4784 43.9509C57.728 50.7085 48.7403 48.0395 42.4854 45.4142C42.1564 45.2788 41.8274 45.1347 41.4985 44.9774C34.2188 41.7389 27.7319 36.9652 22.486 30.9859C17.24 25.0067 13.3601 17.9645 11.1142 10.3459C9.13588 13.4226 7.53374 16.7236 6.34187 20.1789C6.15326 20.7336 6.50418 21.9 6.56997 22.4897C6.67524 23.4012 6.82145 24.3069 7.00861 25.2067C7.38332 26.9978 7.91764 28.752 8.60523 30.4486C10.0532 34.0632 12.189 37.365 14.8953 40.1723L15.6497 40.9324L14.8119 40.2597C10.5528 36.8481 7.46478 32.2221 5.53479 27.155C5.29354 26.5259 5.09615 25.91 4.90315 25.3116C3.80941 30.2902 3.54416 35.4139 4.11799 40.4781C4.23642 41.544 4.4031 42.6011 4.60049 43.6495C4.6926 44.13 5.6927 44.842 6.04799 45.1914C6.63577 45.7768 7.22792 46.349 7.85517 46.8907C9.1111 47.9659 10.4551 48.9346 11.8731 49.7868C15.2464 51.8753 19.0423 53.194 22.9881 53.6483L24.0671 53.727L22.9837 53.7663C19.838 53.8299 16.7099 53.2855 13.7723 52.1632C12.2913 51.6196 10.8542 50.9639 9.47373 50.2018C8.81139 49.8349 8.15783 49.4374 7.52619 49.0355C7.15335 48.7996 5.73218 48.1618 5.60936 47.725C7.35643 53.6567 10.2221 59.2028 14.0531 64.0666C14.4566 64.202 14.904 64.3418 15.369 64.4816C16.3471 64.7874 17.5622 65.0888 18.8254 65.3553C20.0887 65.6217 21.4923 65.8925 22.8916 66.0848C25.464 66.4492 28.0573 66.6476 30.6554 66.6788C32.7916 66.7094 34.2171 66.5915 34.2171 66.5915C34.2171 66.5915 32.8135 66.8798 30.6773 67.1069C25.9155 67.6364 21.1068 67.5909 16.3559 66.9715L16.5972 67.0501L17.3209 67.7709C20.419 70.8691 23.941 73.5162 27.7824 75.6337L28.0982 75.7429C33.4276 77.5994 40.222 77.2412 45.1479 74.3538C44.3198 74.9895 43.431 75.5426 42.4942 76.005C41.5358 76.5022 40.54 76.9243 39.5158 77.2674C38.3341 77.6744 37.1209 77.9842 35.8883 78.1935C35.2304 78.3115 34.5724 78.3901 33.9057 78.4469C37.0987 79.6366 40.4147 80.4688 43.7925 80.928H43.9417C49.2316 80.9805 54.504 80.1112 58.9518 77.0709C59.7853 76.53 60.5652 75.9113 61.2809 75.2231C60.6657 76.0154 59.9754 76.7468 59.2193 77.4072C57.5504 78.9037 55.6798 80.1608 53.6618 81.1421L53.3635 81.2688C55.0816 81.1534 56.792 80.9434 58.4868 80.6397L63.5706 79.7224L63.3907 84.8682C63.0705 93.9672 59.5308 102.481 53.5916 108.649C56.8156 110.65 59.7544 113.205 63.303 114.625C63.7879 114.843 64.3021 114.99 64.8295 115.061C66.4831 115.219 67.8999 113.751 67.8999 112.13V70.1516H56.4077C54.254 70.1516 50.6616 72.5192 50.6616 72.5192L44.4066 66.277L50.7844 60.1439C52.3082 61.6621 54.3751 62.5153 56.5305 62.5159H67.9131V48.2317L64.8426 45.174L71.7555 38.2852L78.664 45.1652L75.5936 48.223V62.5072H86.9981C89.1533 62.5056 91.2198 61.6525 92.7442 60.1352L99.1176 66.2682L92.8538 72.5104C92.8538 72.5104 89.2614 70.1428 87.1077 70.1428H75.5936V112.117C75.5936 113.725 77.0279 115.206 78.664 115.048C79.19 114.977 79.7027 114.83 80.1861 114.612C83.739 113.192 86.6735 110.636 89.9018 108.636C83.9627 102.468 80.4229 93.9541 80.1027 84.8551L79.9185 79.7093L85.0067 80.6266C86.7087 80.9311 88.4264 81.1411 90.1519 81.2556L89.8536 81.129C87.8266 80.1566 85.9469 78.9052 84.2698 77.4116C83.5132 76.7504 82.8214 76.019 82.2038 75.2275C82.9217 75.9149 83.703 76.5335 84.5373 77.0752C88.9807 80.133 94.2575 81.0067 99.5474 80.9324H99.7185C103.096 80.4737 106.412 79.6415 109.605 78.4512C108.947 78.3945 108.289 78.3158 107.627 78.1979C106.387 77.9997 105.164 77.7002 103.973 77.3024C102.949 76.9584 101.954 76.5364 100.995 76.04C100.065 75.5772 99.1837 75.0241 98.3631 74.3888C103.289 77.2762 110.079 77.6344 115.413 75.7779L115.729 75.6687C119.57 73.5512 123.092 70.9041 126.19 67.8058L126.909 67.0851L127.155 67.0064C122.404 67.6258 117.596 67.6713 112.834 67.1419C110.693 66.9147 109.294 66.6264 109.294 66.6264C109.294 66.6264 110.719 66.7444 112.851 66.7138C115.451 66.6827 118.046 66.4843 120.619 66.1197C122.014 65.9275 123.4 65.6829 124.686 65.3902C125.971 65.0975 127.164 64.8092 128.142 64.5165C128.625 64.3768 129.076 64.237 129.458 64.1016C133.287 59.2367 136.153 53.691 137.902 47.76C137.779 48.1968 136.358 48.8302 135.98 49.0704C135.34 49.4723 134.7 49.8698 134.037 50.2367C132.655 50.9989 131.217 51.6546 129.734 52.1981C126.797 53.3212 123.669 53.8657 120.523 53.8013L119.44 53.7619L120.519 53.6833C124.463 53.2158 128.255 51.8836 131.62 49.7825C133.04 48.9324 134.384 47.9635 135.638 46.8863C136.27 46.3447 136.862 45.7724 137.45 45.1871C137.801 44.8376 138.805 44.1256 138.897 43.6451C139.093 42.5967 139.254 41.5396 139.38 40.4737C139.95 35.4138 139.685 30.295 138.595 25.3203ZM65.7067 28.9896C65.7067 28.9896 64.3513 27.867 65.0575 26.3119C65.2406 25.8345 65.6054 25.4483 66.0727 25.2372C66.5401 25.0262 67.0722 25.0074 67.5534 25.1849C67.106 28.3781 65.7067 28.9896 65.7067 28.9896ZM77.7867 28.9896C77.7867 28.9896 76.3919 28.3824 75.9445 25.1849C76.4257 25.0074 76.9578 25.0262 77.4251 25.2372C77.8925 25.4483 78.2573 25.8345 78.4403 26.3119C79.1421 27.867 77.7867 28.9896 77.7867 28.9896Z"/>
</mask>
<path d="M138.595 25.3203C138.406 25.9187 138.204 26.5347 137.963 27.1637C136.033 32.2308 132.945 36.8568 128.682 40.2684L127.844 40.9411L128.603 40.1811C131.303 37.3809 133.436 34.0883 134.884 30.4836C135.573 28.7871 136.109 27.0329 136.485 25.2417C136.669 24.3418 136.818 23.4376 136.924 22.5246C136.994 21.9349 137.362 20.7773 137.152 20.2138C135.961 16.7579 134.359 13.4567 132.379 10.3809C130.138 17.9873 126.268 25.0193 121.035 30.992C115.801 36.9648 109.329 41.7362 102.065 44.9774C101.736 45.1215 101.407 45.2657 101.078 45.4142C94.8189 48.0352 85.8357 50.7085 81.0853 43.9509C80.5748 43.0921 80.1347 42.1937 79.7694 41.2644C77.3218 34.6509 82.4538 30.7325 79.3044 25.779C79.1816 25.5824 79.0456 25.3902 78.8965 25.1936C78.5252 24.7186 78.1253 24.2663 77.699 23.8395C76.7428 22.8653 75.5848 21.8475 74.5408 20.9783L74.5803 21.1311C74.5803 21.1311 73.1679 22.2101 71.7687 22.2101C70.3738 22.2101 68.9614 21.1311 68.9614 21.1311L69.0009 20.9783C67.9008 21.8788 66.8467 22.8337 65.8427 23.8395C65.4139 24.2652 65.0125 24.7175 64.6409 25.1936C64.4917 25.3902 64.3557 25.5824 64.2329 25.779C61.0835 30.7325 66.2199 34.6509 63.7943 41.2644C63.427 42.1928 62.987 43.0911 62.4784 43.9509C57.728 50.7085 48.7403 48.0395 42.4854 45.4142C42.1564 45.2788 41.8274 45.1347 41.4985 44.9774C34.2188 41.7389 27.7319 36.9652 22.486 30.9859C17.24 25.0067 13.3601 17.9645 11.1142 10.3459C9.13588 13.4226 7.53374 16.7236 6.34187 20.1789C6.15326 20.7336 6.50418 21.9 6.56997 22.4897C6.67524 23.4012 6.82145 24.3069 7.00861 25.2067C7.38332 26.9978 7.91764 28.752 8.60523 30.4486C10.0532 34.0632 12.189 37.365 14.8953 40.1723L15.6497 40.9324L14.8119 40.2597C10.5528 36.8481 7.46478 32.2221 5.53479 27.155C5.29354 26.5259 5.09615 25.91 4.90315 25.3116C3.80941 30.2902 3.54416 35.4139 4.11799 40.4781C4.23642 41.544 4.4031 42.6011 4.60049 43.6495C4.6926 44.13 5.6927 44.842 6.04799 45.1914C6.63577 45.7768 7.22792 46.349 7.85517 46.8907C9.1111 47.9659 10.4551 48.9346 11.8731 49.7868C15.2464 51.8753 19.0423 53.194 22.9881 53.6483L24.0671 53.727L22.9837 53.7663C19.838 53.8299 16.7099 53.2855 13.7723 52.1632C12.2913 51.6196 10.8542 50.9639 9.47373 50.2018C8.81139 49.8349 8.15783 49.4374 7.52619 49.0355C7.15335 48.7996 5.73218 48.1618 5.60936 47.725C7.35643 53.6567 10.2221 59.2028 14.0531 64.0666C14.4566 64.202 14.904 64.3418 15.369 64.4816C16.3471 64.7874 17.5622 65.0888 18.8254 65.3553C20.0887 65.6217 21.4923 65.8925 22.8916 66.0848C25.464 66.4492 28.0573 66.6476 30.6554 66.6788C32.7916 66.7094 34.2171 66.5915 34.2171 66.5915C34.2171 66.5915 32.8135 66.8798 30.6773 67.1069C25.9155 67.6364 21.1068 67.5909 16.3559 66.9715L16.5972 67.0501L17.3209 67.7709C20.419 70.8691 23.941 73.5162 27.7824 75.6337L28.0982 75.7429C33.4276 77.5994 40.222 77.2412 45.1479 74.3538C44.3198 74.9895 43.431 75.5426 42.4942 76.005C41.5358 76.5022 40.54 76.9243 39.5158 77.2674C38.3341 77.6744 37.1209 77.9842 35.8883 78.1935C35.2304 78.3115 34.5724 78.3901 33.9057 78.4469C37.0987 79.6366 40.4147 80.4688 43.7925 80.928H43.9417C49.2316 80.9805 54.504 80.1112 58.9518 77.0709C59.7853 76.53 60.5652 75.9113 61.2809 75.2231C60.6657 76.0154 59.9754 76.7468 59.2193 77.4072C57.5504 78.9037 55.6798 80.1608 53.6618 81.1421L53.3635 81.2688C55.0816 81.1534 56.792 80.9434 58.4868 80.6397L63.5706 79.7224L63.3907 84.8682C63.0705 93.9672 59.5308 102.481 53.5916 108.649C56.8156 110.65 59.7544 113.205 63.303 114.625C63.7879 114.843 64.3021 114.99 64.8295 115.061C66.4831 115.219 67.8999 113.751 67.8999 112.13V70.1516H56.4077C54.254 70.1516 50.6616 72.5192 50.6616 72.5192L44.4066 66.277L50.7844 60.1439C52.3082 61.6621 54.3751 62.5153 56.5305 62.5159H67.9131V48.2317L64.8426 45.174L71.7555 38.2852L78.664 45.1652L75.5936 48.223V62.5072H86.9981C89.1533 62.5056 91.2198 61.6525 92.7442 60.1352L99.1176 66.2682L92.8538 72.5104C92.8538 72.5104 89.2614 70.1428 87.1077 70.1428H75.5936V112.117C75.5936 113.725 77.0279 115.206 78.664 115.048C79.19 114.977 79.7027 114.83 80.1861 114.612C83.739 113.192 86.6735 110.636 89.9018 108.636C83.9627 102.468 80.4229 93.9541 80.1027 84.8551L79.9185 79.7093L85.0067 80.6266C86.7087 80.9311 88.4264 81.1411 90.1519 81.2556L89.8536 81.129C87.8266 80.1566 85.9469 78.9052 84.2698 77.4116C83.5132 76.7504 82.8214 76.019 82.2038 75.2275C82.9217 75.9149 83.703 76.5335 84.5373 77.0752C88.9807 80.133 94.2575 81.0067 99.5474 80.9324H99.7185C103.096 80.4737 106.412 79.6415 109.605 78.4512C108.947 78.3945 108.289 78.3158 107.627 78.1979C106.387 77.9997 105.164 77.7002 103.973 77.3024C102.949 76.9584 101.954 76.5364 100.995 76.04C100.065 75.5772 99.1837 75.0241 98.3631 74.3888C103.289 77.2762 110.079 77.6344 115.413 75.7779L115.729 75.6687C119.57 73.5512 123.092 70.9041 126.19 67.8058L126.909 67.0851L127.155 67.0064C122.404 67.6258 117.596 67.6713 112.834 67.1419C110.693 66.9147 109.294 66.6264 109.294 66.6264C109.294 66.6264 110.719 66.7444 112.851 66.7138C115.451 66.6827 118.046 66.4843 120.619 66.1197C122.014 65.9275 123.4 65.6829 124.686 65.3902C125.971 65.0975 127.164 64.8092 128.142 64.5165C128.625 64.3768 129.076 64.237 129.458 64.1016C133.287 59.2367 136.153 53.691 137.902 47.76C137.779 48.1968 136.358 48.8302 135.98 49.0704C135.34 49.4723 134.7 49.8698 134.037 50.2367C132.655 50.9989 131.217 51.6546 129.734 52.1981C126.797 53.3212 123.669 53.8657 120.523 53.8013L119.44 53.7619L120.519 53.6833C124.463 53.2158 128.255 51.8836 131.62 49.7825C133.04 48.9324 134.384 47.9635 135.638 46.8863C136.27 46.3447 136.862 45.7724 137.45 45.1871C137.801 44.8376 138.805 44.1256 138.897 43.6451C139.093 42.5967 139.254 41.5396 139.38 40.4737C139.95 35.4138 139.685 30.295 138.595 25.3203ZM65.7067 28.9896C65.7067 28.9896 64.3513 27.867 65.0575 26.3119C65.2406 25.8345 65.6054 25.4483 66.0727 25.2372C66.5401 25.0262 67.0722 25.0074 67.5534 25.1849C67.106 28.3781 65.7067 28.9896 65.7067 28.9896ZM77.7867 28.9896C77.7867 28.9896 76.3919 28.3824 75.9445 25.1849C76.4257 25.0074 76.9578 25.0262 77.4251 25.2372C77.8925 25.4483 78.2573 25.8345 78.4403 26.3119C79.1421 27.867 77.7867 28.9896 77.7867 28.9896Z" fill="white"/>
<path d="M138.595 25.3203C138.406 25.9187 138.204 26.5347 137.963 27.1637C136.033 32.2308 132.945 36.8568 128.682 40.2684L127.844 40.9411L128.603 40.1811C131.303 37.3809 133.436 34.0883 134.884 30.4836C135.573 28.7871 136.109 27.0329 136.485 25.2417C136.669 24.3418 136.818 23.4376 136.924 22.5246C136.994 21.9349 137.362 20.7773 137.152 20.2138C135.961 16.7579 134.359 13.4567 132.379 10.3809C130.138 17.9873 126.268 25.0193 121.035 30.992C115.801 36.9648 109.329 41.7362 102.065 44.9774C101.736 45.1215 101.407 45.2657 101.078 45.4142C94.8189 48.0352 85.8357 50.7085 81.0853 43.9509C80.5748 43.0921 80.1347 42.1937 79.7694 41.2644C77.3218 34.6509 82.4538 30.7325 79.3044 25.779C79.1816 25.5824 79.0456 25.3902 78.8965 25.1936C78.5252 24.7186 78.1253 24.2663 77.699 23.8395C76.7428 22.8653 75.5848 21.8475 74.5408 20.9783L74.5803 21.1311C74.5803 21.1311 73.1679 22.2101 71.7687 22.2101C70.3738 22.2101 68.9614 21.1311 68.9614 21.1311L69.0009 20.9783C67.9008 21.8788 66.8467 22.8337 65.8427 23.8395C65.4139 24.2652 65.0125 24.7175 64.6409 25.1936C64.4917 25.3902 64.3557 25.5824 64.2329 25.779C61.0835 30.7325 66.2199 34.6509 63.7943 41.2644C63.427 42.1928 62.987 43.0911 62.4784 43.9509C57.728 50.7085 48.7403 48.0395 42.4854 45.4142C42.1564 45.2788 41.8274 45.1347 41.4985 44.9774C34.2188 41.7389 27.7319 36.9652 22.486 30.9859C17.24 25.0067 13.3601 17.9645 11.1142 10.3459C9.13588 13.4226 7.53374 16.7236 6.34187 20.1789C6.15326 20.7336 6.50418 21.9 6.56997 22.4897C6.67524 23.4012 6.82145 24.3069 7.00861 25.2067C7.38332 26.9978 7.91764 28.752 8.60523 30.4486C10.0532 34.0632 12.189 37.365 14.8953 40.1723L15.6497 40.9324L14.8119 40.2597C10.5528 36.8481 7.46478 32.2221 5.53479 27.155C5.29354 26.5259 5.09615 25.91 4.90315 25.3116C3.80941 30.2902 3.54416 35.4139 4.11799 40.4781C4.23642 41.544 4.4031 42.6011 4.60049 43.6495C4.6926 44.13 5.6927 44.842 6.04799 45.1914C6.63577 45.7768 7.22792 46.349 7.85517 46.8907C9.1111 47.9659 10.4551 48.9346 11.8731 49.7868C15.2464 51.8753 19.0423 53.194 22.9881 53.6483L24.0671 53.727L22.9837 53.7663C19.838 53.8299 16.7099 53.2855 13.7723 52.1632C12.2913 51.6196 10.8542 50.9639 9.47373 50.2018C8.81139 49.8349 8.15783 49.4374 7.52619 49.0355C7.15335 48.7996 5.73218 48.1618 5.60936 47.725C7.35643 53.6567 10.2221 59.2028 14.0531 64.0666C14.4566 64.202 14.904 64.3418 15.369 64.4816C16.3471 64.7874 17.5622 65.0888 18.8254 65.3553C20.0887 65.6217 21.4923 65.8925 22.8916 66.0848C25.464 66.4492 28.0573 66.6476 30.6554 66.6788C32.7916 66.7094 34.2171 66.5915 34.2171 66.5915C34.2171 66.5915 32.8135 66.8798 30.6773 67.1069C25.9155 67.6364 21.1068 67.5909 16.3559 66.9715L16.5972 67.0501L17.3209 67.7709C20.419 70.8691 23.941 73.5162 27.7824 75.6337L28.0982 75.7429C33.4276 77.5994 40.222 77.2412 45.1479 74.3538C44.3198 74.9895 43.431 75.5426 42.4942 76.005C41.5358 76.5022 40.54 76.9243 39.5158 77.2674C38.3341 77.6744 37.1209 77.9842 35.8883 78.1935C35.2304 78.3115 34.5724 78.3901 33.9057 78.4469C37.0987 79.6366 40.4147 80.4688 43.7925 80.928H43.9417C49.2316 80.9805 54.504 80.1112 58.9518 77.0709C59.7853 76.53 60.5652 75.9113 61.2809 75.2231C60.6657 76.0154 59.9754 76.7468 59.2193 77.4072C57.5504 78.9037 55.6798 80.1608 53.6618 81.1421L53.3635 81.2688C55.0816 81.1534 56.792 80.9434 58.4868 80.6397L63.5706 79.7224L63.3907 84.8682C63.0705 93.9672 59.5308 102.481 53.5916 108.649C56.8156 110.65 59.7544 113.205 63.303 114.625C63.7879 114.843 64.3021 114.99 64.8295 115.061C66.4831 115.219 67.8999 113.751 67.8999 112.13V70.1516H56.4077C54.254 70.1516 50.6616 72.5192 50.6616 72.5192L44.4066 66.277L50.7844 60.1439C52.3082 61.6621 54.3751 62.5153 56.5305 62.5159H67.9131V48.2317L64.8426 45.174L71.7555 38.2852L78.664 45.1652L75.5936 48.223V62.5072H86.9981C89.1533 62.5056 91.2198 61.6525 92.7442 60.1352L99.1176 66.2682L92.8538 72.5104C92.8538 72.5104 89.2614 70.1428 87.1077 70.1428H75.5936V112.117C75.5936 113.725 77.0279 115.206 78.664 115.048C79.19 114.977 79.7027 114.83 80.1861 114.612C83.739 113.192 86.6735 110.636 89.9018 108.636C83.9627 102.468 80.4229 93.9541 80.1027 84.8551L79.9185 79.7093L85.0067 80.6266C86.7087 80.9311 88.4264 81.1411 90.1519 81.2556L89.8536 81.129C87.8266 80.1566 85.9469 78.9052 84.2698 77.4116C83.5132 76.7504 82.8214 76.019 82.2038 75.2275C82.9217 75.9149 83.703 76.5335 84.5373 77.0752C88.9807 80.133 94.2575 81.0067 99.5474 80.9324H99.7185C103.096 80.4737 106.412 79.6415 109.605 78.4512C108.947 78.3945 108.289 78.3158 107.627 78.1979C106.387 77.9997 105.164 77.7002 103.973 77.3024C102.949 76.9584 101.954 76.5364 100.995 76.04C100.065 75.5772 99.1837 75.0241 98.3631 74.3888C103.289 77.2762 110.079 77.6344 115.413 75.7779L115.729 75.6687C119.57 73.5512 123.092 70.9041 126.19 67.8058L126.909 67.0851L127.155 67.0064C122.404 67.6258 117.596 67.6713 112.834 67.1419C110.693 66.9147 109.294 66.6264 109.294 66.6264C109.294 66.6264 110.719 66.7444 112.851 66.7138C115.451 66.6827 118.046 66.4843 120.619 66.1197C122.014 65.9275 123.4 65.6829 124.686 65.3902C125.971 65.0975 127.164 64.8092 128.142 64.5165C128.625 64.3768 129.076 64.237 129.458 64.1016C133.287 59.2367 136.153 53.691 137.902 47.76C137.779 48.1968 136.358 48.8302 135.98 49.0704C135.34 49.4723 134.7 49.8698 134.037 50.2367C132.655 50.9989 131.217 51.6546 129.734 52.1981C126.797 53.3212 123.669 53.8657 120.523 53.8013L119.44 53.7619L120.519 53.6833C124.463 53.2158 128.255 51.8836 131.62 49.7825C133.04 48.9324 134.384 47.9635 135.638 46.8863C136.27 46.3447 136.862 45.7724 137.45 45.1871C137.801 44.8376 138.805 44.1256 138.897 43.6451C139.093 42.5967 139.254 41.5396 139.38 40.4737C139.95 35.4138 139.685 30.295 138.595 25.3203ZM65.7067 28.9896C65.7067 28.9896 64.3513 27.867 65.0575 26.3119C65.2406 25.8345 65.6054 25.4483 66.0727 25.2372C66.5401 25.0262 67.0722 25.0074 67.5534 25.1849C67.106 28.3781 65.7067 28.9896 65.7067 28.9896ZM77.7867 28.9896C77.7867 28.9896 76.3919 28.3824 75.9445 25.1849C76.4257 25.0074 76.9578 25.0262 77.4251 25.2372C77.8925 25.4483 78.2573 25.8345 78.4403 26.3119C79.1421 27.867 77.7867 28.9896 77.7867 28.9896Z" stroke="#2F51A9" stroke-width="6" stroke-linejoin="round" mask="url(#path-5-outside-1_61_36)"/>
<path d="M71.6504 22.2323C72.9472 22.2323 74.2358 21.1741 74.2358 21.1741C74.2273 21.1306 74.2164 21.0877 74.2033 21.0456C73.6423 18.9296 72.7816 16.9148 71.6504 15.0693C70.5272 16.9134 69.6633 18.9192 69.0854 21.0242L69.0488 21.1741C69.0488 21.1741 70.3577 22.2323 71.6504 22.2323Z" fill="#FCCB4B"/>
<path d="M71.6504 22.2323C72.9472 22.2323 74.2358 21.1741 74.2358 21.1741C74.2273 21.1306 74.2164 21.0877 74.2033 21.0456C73.6423 18.9296 72.7816 16.9148 71.6504 15.0693C70.5272 16.9134 69.6633 18.9192 69.0854 21.0242L69.0488 21.1741C69.0488 21.1741 70.3577 22.2323 71.6504 22.2323Z" stroke="black"/>
<path d="M65.2052 26.2217C64.4944 27.7873 65.8585 28.9175 65.8585 28.9175C65.8585 28.9175 67.2667 28.3063 67.717 25.0871C67.2327 24.9084 66.6972 24.9274 66.2269 25.1398C65.7565 25.3523 65.3894 25.7411 65.2052 26.2217Z" fill="#8B8B8B"/>
<path d="M65.2052 26.2217C64.4944 27.7873 65.8585 28.9175 65.8585 28.9175C65.8585 28.9175 67.2667 28.3063 67.717 25.0871C67.2327 24.9084 66.6972 24.9274 66.2269 25.1398C65.7565 25.3523 65.3894 25.7411 65.2052 26.2217Z" stroke="black"/>
<path d="M75.7959 25.0869C76.2381 28.3062 77.653 28.9175 77.653 28.9175C77.653 28.9175 79.0193 27.7873 78.3074 26.2216C78.1238 25.7413 77.7569 25.3525 77.2865 25.14C76.8161 24.9275 76.2804 24.9084 75.7959 25.0869Z" fill="#8B8B8B"/>
<path d="M75.7959 25.0869C76.2381 28.3062 77.653 28.9175 77.653 28.9175C77.653 28.9175 79.0193 27.7873 78.3074 26.2216C78.1238 25.7413 77.7569 25.3525 77.2865 25.14C76.8161 24.9275 76.2804 24.9084 75.7959 25.0869Z" stroke="black"/>
<defs>
<linearGradient id="paint0_linear_61_36" x1="71.7477" y1="3.82349" x2="71.7477" y2="139.672" gradientUnits="userSpaceOnUse">
<stop stop-color="#0094FF"/>
<stop offset="1" stop-color="#2CB6B6" stop-opacity="0"/>
</linearGradient>
<linearGradient id="paint1_linear_61_36" x1="71.7477" y1="3.82349" x2="71.7477" y2="139.672" gradientUnits="userSpaceOnUse">
<stop stop-color="#0094FF"/>
<stop offset="1" stop-color="#2CB6B6" stop-opacity="0"/>
</linearGradient>
<linearGradient id="paint2_linear_61_36" x1="71.7477" y1="3.82349" x2="71.7477" y2="139.672" gradientUnits="userSpaceOnUse">
<stop stop-color="#0094FF"/>
<stop offset="1" stop-color="#2CB6B6" stop-opacity="0"/>
</linearGradient>
<linearGradient id="paint3_linear_61_36" x1="71.7477" y1="3.82349" x2="71.7477" y2="139.672" gradientUnits="userSpaceOnUse">
<stop stop-color="#0094FF"/>
<stop offset="1" stop-color="#2CB6B6" stop-opacity="0"/>
</linearGradient>
<linearGradient id="paint4_linear_61_36" x1="71.7477" y1="3.82349" x2="71.7477" y2="139.672" gradientUnits="userSpaceOnUse">
<stop stop-color="#0094FF"/>
<stop offset="1" stop-color="#2CB6B6" stop-opacity="0"/>
</linearGradient>
<linearGradient id="paint5_linear_61_36" x1="71.7477" y1="3.82349" x2="71.7477" y2="139.672" gradientUnits="userSpaceOnUse">
<stop stop-color="#0094FF"/>
<stop offset="1" stop-color="#2CB6B6" stop-opacity="0"/>
</linearGradient>
<linearGradient id="paint6_linear_61_36" x1="71.7477" y1="3.82349" x2="71.7477" y2="139.672" gradientUnits="userSpaceOnUse">
<stop stop-color="#0094FF"/>
<stop offset="1" stop-color="#2CB6B6" stop-opacity="0"/>
</linearGradient>
<linearGradient id="paint7_linear_61_36" x1="71.7477" y1="3.82349" x2="71.7477" y2="139.672" gradientUnits="userSpaceOnUse">
<stop stop-color="#0094FF"/>
<stop offset="1" stop-color="#2CB6B6" stop-opacity="0"/>
</linearGradient>
<linearGradient id="paint8_linear_61_36" x1="71.7477" y1="3.82349" x2="71.7477" y2="139.672" gradientUnits="userSpaceOnUse">
<stop stop-color="#0094FF"/>
<stop offset="1" stop-color="#2CB6B6" stop-opacity="0"/>
</linearGradient>
<linearGradient id="paint9_linear_61_36" x1="71.7477" y1="3.82349" x2="71.7477" y2="139.672" gradientUnits="userSpaceOnUse">
<stop stop-color="#0094FF"/>
<stop offset="1" stop-color="#2CB6B6" stop-opacity="0"/>
</linearGradient>
<linearGradient id="paint10_linear_61_36" x1="71.7477" y1="3.82349" x2="71.7477" y2="139.672" gradientUnits="userSpaceOnUse">
<stop stop-color="#0094FF"/>
<stop offset="1" stop-color="#2CB6B6" stop-opacity="0"/>
</linearGradient>
<linearGradient id="paint11_linear_61_36" x1="71.7477" y1="3.82349" x2="71.7477" y2="139.672" gradientUnits="userSpaceOnUse">
<stop stop-color="#0094FF"/>
<stop offset="1" stop-color="#2CB6B6" stop-opacity="0"/>
</linearGradient>
<linearGradient id="paint12_linear_61_36" x1="71.7477" y1="3.82349" x2="71.7477" y2="139.672" gradientUnits="userSpaceOnUse">
<stop stop-color="#0094FF"/>
<stop offset="1" stop-color="#2CB6B6" stop-opacity="0"/>
</linearGradient>
<linearGradient id="paint13_linear_61_36" x1="71.7477" y1="3.82349" x2="71.7477" y2="139.672" gradientUnits="userSpaceOnUse">
<stop stop-color="#0094FF"/>
<stop offset="1" stop-color="#2CB6B6" stop-opacity="0"/>
</linearGradient>
<linearGradient id="paint14_linear_61_36" x1="71.7477" y1="3.82349" x2="71.7477" y2="139.672" gradientUnits="userSpaceOnUse">
<stop stop-color="#0094FF"/>
<stop offset="1" stop-color="#2CB6B6" stop-opacity="0"/>
</linearGradient>
<linearGradient id="paint15_linear_61_36" x1="71.7477" y1="3.82349" x2="71.7477" y2="139.672" gradientUnits="userSpaceOnUse">
<stop stop-color="#0094FF"/>
<stop offset="1" stop-color="#2CB6B6" stop-opacity="0"/>
</linearGradient>
</defs>
</svg>
